<?xml version="1.0" encoding="UTF-8" standalone="no"?>
<svg width="100px" height="100px" viewBox="0 0 100 100" version="1.1" xmlns="http://www.w3.org/2000/svg" xmlns:xlink="http://www.w3.org/1999/xlink">
    <!-- Generator: Sketch 3.8.3 (29802) - http://www.bohemiancoding.com/sketch -->
    <title>client-logo-exubrancy</title>
    <desc>Created with Sketch.</desc>
    <defs></defs>
    <g id="Page-1" stroke="none" stroke-width="1" fill="none" fill-rule="evenodd">
        <g id="client-logo-exubrancy">
            <g id="exubrancy-logo">
                <circle id="Oval-177" fill="#000E30" cx="50" cy="50" r="50"></circle>
                <path d="M13.9417633,43.8818565 L13.9417633,45.0395056 L7.90395941,45.0395056 L7.90395941,49.0817882 L13.5830819,49.0817882 L13.5830819,50.2394372 L7.90395941,50.2394372 L7.90395941,54.6897437 L14.2065043,54.6897437 L14.2065043,55.8473928 L6.75105485,55.8473928 L6.75105485,43.8818565 L13.9417633,43.8818565 Z M19.5161913,49.8598802 C20.0912231,50.8404075 20.6690929,51.8398977 21.2498181,52.8583809 C21.8305433,53.8768641 22.4055665,54.8731914 22.974905,55.8473928 L21.6682798,55.8473928 L18.8842288,50.9700846 L16.0745577,55.8473928 L14.7679325,55.8473928 L18.2266462,49.8409023 L14.8020926,43.8818565 L16.0745577,43.8818565 L18.8671487,48.7401869 L21.6682798,43.8818565 L22.974905,43.8818565 L19.5161913,49.8598802 Z M27.081396,43.8818565 L27.081396,51.9379551 C27.081396,52.4250557 27.1625255,52.8631235 27.324787,53.2521714 C27.4870484,53.6412193 27.6977005,53.9701655 27.9567495,54.2390197 C28.2157985,54.507874 28.5090034,54.7134653 28.836373,54.8557999 C29.1637426,54.9981346 29.4925306,55.0693008 29.8227469,55.0693008 C30.1757367,55.0693008 30.5272979,55.0044604 30.877441,54.8747778 C31.2275842,54.7450952 31.5421389,54.5489926 31.8211148,54.2864644 C32.1000906,54.0239361 32.3263992,53.6997343 32.5000474,53.3138494 C32.6736957,52.9279645 32.7605185,52.4788264 32.7605185,51.9664219 L32.7605185,43.8818565 L33.9219631,43.8818565 L33.9219631,51.8905104 C33.9219631,52.3523072 33.8664534,52.7793046 33.7554324,53.1715155 C33.6444114,53.5637264 33.4921157,53.9195576 33.2985406,54.2390197 C33.1049655,54.5584819 32.8758103,54.8399839 32.6110679,55.0835342 C32.3463255,55.3270845 32.0630839,55.5310944 31.7613345,55.6955699 C31.4595852,55.8600455 31.1450304,55.9834003 30.8176608,56.0656381 C30.4902912,56.1478758 30.1643498,56.1889941 29.8398269,56.1889941 C29.3786628,56.1889941 28.9146589,56.0972687 28.4478014,55.9138152 C27.9809439,55.7303617 27.5610631,55.4567671 27.1881464,55.0930231 C26.8152298,54.7292791 26.5120616,54.2769781 26.2786328,53.7361066 C26.0452041,53.1952351 25.9284915,52.5673908 25.9284915,51.8525547 L25.9284915,43.8818565 L27.081396,43.8818565 Z M36.8849032,44.2329468 L41.0780598,44.2329468 C41.5449173,44.2329468 41.9633748,44.307276 42.3334448,44.4559366 C42.7035148,44.6045972 43.0166462,44.8054441 43.2728485,45.0584834 C43.5290508,45.3115227 43.7240463,45.6088394 43.8578408,45.9504425 C43.9916354,46.2920456 44.0585316,46.6526212 44.0585316,47.0321801 C44.0585316,47.6078445 43.9290091,48.1376376 43.6699601,48.6215753 C43.4109111,49.105513 43.0081102,49.5087883 42.4615453,49.8314134 C42.871469,49.964259 43.2187602,50.1334765 43.5034294,50.339071 C43.7880986,50.5446654 44.0186772,50.7787232 44.1951722,51.0412515 C44.3716671,51.3037798 44.4997663,51.5868633 44.5794737,51.8905104 C44.6591811,52.1941576 44.6990341,52.507289 44.6990341,52.8299142 C44.6990341,53.2917109 44.6122113,53.7266157 44.4385631,54.1346415 C44.2649149,54.5426674 44.0343363,54.9000801 43.7468204,55.2068902 C43.4593045,55.5137004 43.1262465,55.7556656 42.7476364,55.9327931 C42.3690264,56.1099206 41.9747654,56.198483 41.5648418,56.198483 L36.8849032,56.198483 L36.8849032,44.2329468 Z M38.0378078,49.2620778 L40.8047787,49.2620778 C41.1293017,49.2620778 41.4267765,49.2083078 41.6972123,49.1007661 C41.967648,48.9932244 42.19965,48.8461475 42.393225,48.659531 C42.5868001,48.4729145 42.7376725,48.2546714 42.8458468,48.0047951 C42.9540211,47.7549188 43.0081075,47.48765 43.0081075,47.2029808 C43.0081075,46.9436155 42.9682544,46.7032318 42.888547,46.4818224 C42.8088396,46.260413 42.687857,46.0690549 42.5255956,45.9077423 C42.3633341,45.7464298 42.156952,45.619912 41.9064431,45.5281853 C41.6559342,45.4364585 41.3598826,45.3905958 41.0182796,45.3905958 L38.0378078,45.3905958 L38.0378078,49.2620778 Z M38.0378078,55.040834 L41.0865999,55.040834 C41.3769625,55.040834 41.6673207,54.9949713 41.9576833,54.9032446 C42.2480459,54.8115178 42.5099377,54.6739298 42.7433664,54.4904763 C42.9767952,54.3070228 43.1660974,54.0729649 43.3112787,53.7882957 C43.45646,53.5036265 43.5290495,53.1651915 43.5290495,52.7729806 C43.5290495,52.4503555 43.4635766,52.1435499 43.3326287,51.8525547 C43.2016809,51.5615595 43.013802,51.308524 42.7689865,51.0934406 C42.524171,50.8783572 42.2252728,50.7075582 41.872283,50.5810386 C41.5192931,50.4545189 41.1179156,50.3912601 40.6681382,50.3912601 L38.0378078,50.3912601 L38.0378078,55.040834 Z M54.1497791,47.6394714 C54.1497791,47.9367926 54.1184659,48.2262019 54.0558387,48.5077082 C53.9932115,48.7892144 53.8978487,49.0580646 53.7697476,49.3142669 C53.6416464,49.5704692 53.4836574,49.8061085 53.2957757,50.0211919 C53.107894,50.2362753 52.888702,50.4197261 52.6381931,50.5715497 C52.9171689,50.6474615 53.1449009,50.7676533 53.3213958,50.9321289 C53.4978907,51.0966044 53.6373765,51.2847996 53.7398575,51.49672 C53.8423384,51.7086404 53.9120813,51.9411168 53.9490883,52.1941561 C53.9860953,52.4471954 54.0045985,52.7033938 54.0045985,52.9627591 L54.0045985,54.7751441 C54.0045985,55.0408353 54.037335,55.2938708 54.1028089,55.5342582 C54.1682828,55.7746455 54.252259,55.9960516 54.3547399,56.198483 L53.107895,56.198483 C53.0566545,56.1099193 53.0153781,56.0071236 52.9840645,55.8900929 C52.9527509,55.7730623 52.9299777,55.6528704 52.9157442,55.5295137 C52.9015107,55.4061571 52.8915475,55.2843837 52.8858541,55.1641901 C52.8801607,55.0439964 52.8773141,54.9396192 52.8773141,54.8510555 L52.8773141,52.9437813 C52.8773141,52.7160459 52.8417309,52.4898954 52.7705636,52.265323 C52.6993963,52.0407507 52.5855304,51.8399037 52.4289623,51.6627762 C52.2723942,51.4856487 52.0688588,51.3417347 51.8183499,51.2310301 C51.567841,51.1203254 51.2604028,51.0649738 50.8960262,51.0649738 L47.6422733,51.0649738 L47.6422733,56.198483 L46.4893688,56.198483 L46.4893688,44.2329468 L50.8960262,44.2329468 C51.4198176,44.2329468 51.8838214,44.334161 52.2880517,44.5365925 C52.692282,44.7390239 53.0324566,45.0031297 53.3085858,45.3289178 C53.5847149,45.6547059 53.7939436,46.0200259 53.9362782,46.4248888 C54.0786129,46.8297517 54.1497791,47.2346085 54.1497791,47.6394714 L54.1497791,47.6394714 Z M47.6422733,49.9452805 L50.8960262,49.9452805 C51.1806954,49.9452805 51.4497038,49.8851846 51.7030594,49.7649909 C51.956415,49.6447973 52.179877,49.4803242 52.3734521,49.2715667 C52.5670271,49.0628093 52.7193229,48.8160997 52.8303439,48.5314305 C52.9413649,48.2467613 52.9968745,47.9431187 52.9968745,47.6204936 C52.9968745,47.2978684 52.9442115,47.0005517 52.8388839,46.7285345 C52.7335563,46.4565172 52.5869538,46.2208779 52.3990722,46.0216094 C52.2111905,45.822341 51.9891518,45.6673567 51.7329495,45.5566521 C51.4767472,45.4459474 51.1977756,45.3905958 50.8960262,45.3905958 L47.6422733,45.3905958 L47.6422733,49.9452805 Z M60.6712924,44.2329468 L64.5911679,56.198483 L63.3784832,56.198483 L62.1828784,52.5357574 L57.5541801,52.5357574 L56.3585754,56.198483 L55.1288105,56.198483 L59.0999262,44.2329468 L60.6712924,44.2329468 Z M59.8685293,45.4095737 L57.9384816,51.4065752 L61.7900369,51.4065752 L59.8685293,45.4095737 Z M67.3209063,44.2329468 L72.803608,54.5663877 L72.803608,44.2329468 L73.9479725,44.2329468 L73.9479725,56.198483 L72.4022264,56.198483 L66.9280648,45.8555532 L66.9280648,56.198483 L65.7751602,56.198483 L65.7751602,44.2329468 L67.3209063,44.2329468 Z M77.7521736,50.0591476 C77.7521736,50.9700891 77.858923,51.7624066 78.0724249,52.4361237 C78.2859268,53.1098409 78.5648985,53.666519 78.9093482,54.1061748 C79.253798,54.5458305 79.6452123,54.8747767 80.0836029,55.0930231 C80.5219935,55.3112695 80.9689174,55.4203911 81.4243882,55.4203911 C81.8969391,55.4203911 82.3225132,55.3255028 82.7011232,55.1357233 C83.0797333,54.9459438 83.4099446,54.6960712 83.6917671,54.3860981 C83.9735897,54.0761249 84.2055916,53.7218752 84.3877799,53.3233383 C84.5699682,52.9248014 84.6980674,52.5167817 84.7720814,52.0992668 L85.942066,52.0992668 C85.8338917,52.7192131 85.6573995,53.2980318 85.4125839,53.8357404 C85.1677684,54.3734489 84.854637,54.843146 84.4731802,55.2448459 C84.0917235,55.6465458 83.6462228,55.9628402 83.1366649,56.1937386 C82.627107,56.4246369 82.0563538,56.5400844 81.4243882,56.5400844 C80.6899416,56.5400844 80.0252489,56.3930075 79.4302903,56.0988493 C78.8353316,55.8046911 78.328628,55.3792752 77.9101643,54.8225887 C77.4917005,54.2659022 77.1686058,53.5842878 76.9408704,52.7777251 C76.7131351,51.9711623 76.5992691,51.058653 76.5992691,50.0401698 C76.5992691,49.5151132 76.6476621,48.9979719 76.7444497,48.4887303 C76.8412372,47.9794887 76.9835697,47.4971398 77.1714513,47.041669 C77.359333,46.5861983 77.5899116,46.1655268 77.8631941,45.7796418 C78.1364765,45.3937569 78.4510313,45.0600663 78.8068678,44.7785601 C79.1627043,44.4970539 79.5583886,44.2772293 79.9939325,44.1190797 C80.4294764,43.9609301 80.9005969,43.8818565 81.4073081,43.8818565 C82.0506605,43.8818565 82.6242604,43.9767449 83.1281249,44.1665243 C83.6319894,44.3563038 84.0703734,44.6188281 84.4432901,44.9541052 C84.8162068,45.2893823 85.1293382,45.6879132 85.3826938,46.14971 C85.6360494,46.6115067 85.8310449,47.1175777 85.9676861,47.6679382 L84.7550013,47.6679382 C84.4703321,46.7696487 84.057568,46.1022675 83.5166964,45.6657747 C82.9758249,45.2292819 82.2727025,45.0110388 81.4073081,45.0110388 C80.87213,45.0110388 80.3810829,45.1470454 79.9341523,45.4190626 C79.4872216,45.6910799 79.1015006,46.0579814 78.7769777,46.5197781 C78.4524548,46.9815748 78.2005263,47.5176938 78.0211847,48.1281511 C77.8418431,48.7386084 77.7521736,49.3822675 77.7521736,50.0591476 L77.7521736,50.0591476 Z M90.8204136,50.267904 L93.8948258,44.2329468 L95.218531,44.2329468 L91.3584358,51.3970863 L91.3584358,56.198483 L90.2140712,56.198483 L90.2140712,51.3970863 L86.3454359,44.2329468 L87.6691412,44.2329468 L90.8204136,50.267904 Z" id="EXUBRANCY" fill="#FFFFFF"></path>
            </g>
        </g>
    </g>
</svg>