<?xml version="1.0" encoding="UTF-8" standalone="no"?>
<svg width="100px" height="100px" viewBox="0 0 100 100" version="1.1" xmlns="http://www.w3.org/2000/svg" xmlns:xlink="http://www.w3.org/1999/xlink">
    <!-- Generator: Sketch 3.8.3 (29802) - http://www.bohemiancoding.com/sketch -->
    <title>client-logo-fcancer-coolgrey3</title>
    <desc>Created with Sketch.</desc>
    <defs></defs>
    <g id="Page-1" stroke="none" stroke-width="1" fill="none" fill-rule="evenodd">
        <g id="client-logo-fcancer-coolgrey3" fill="#B6C1D1">
            <polygon id="Fill-1" points="49.90025 40.5988338 1.05454167 40.5988338 1.05454167 20.3653061 49.90025 20.3653061"></polygon>
            <polygon id="Fill-2" points="49.90025 80.9976676 1.05454167 80.9976676 1.05454167 60.7641399 49.90025 60.7641399"></polygon>
            <polygon id="Fill-3" points="98.7792083 20.2734694 49.9337917 20.2734694 49.9337917 0.039941691 98.7792083 0.039941691"></polygon>
            <polygon id="Fill-4" points="98.7792083 60.7122449 49.9337917 60.7122449 49.9337917 40.4787172 98.7792083 40.4787172"></polygon>
            <polygon id="Fill-5" points="42.6670333 2.0012828 48.060825 2.0012828 48.060825 3.71819242 44.5176583 3.71819242 44.5176583 9.0645481 47.303075 9.0645481 47.303075 10.78 44.5176583 10.78 44.5176583 18.3109038 42.6670333 18.3109038"></polygon>
            <path d="M7.159825,52.1077551 L7.159825,55.6182507 C7.159825,57.7978426 6.011825,59.2882216 4.1297,59.2882216 C2.202075,59.2882216 1.05465833,57.8666472 1.05465833,55.6404082 L1.05465833,46.1885131 C1.05465833,43.5517784 2.06411667,42.129621 3.94624167,42.129621 C6.03486667,42.129621 7.04461667,43.4818076 7.04461667,46.3042566 L7.04461667,48.5768513 L5.13974167,48.5768513 L5.13974167,46.3742274 C5.13974167,45.0893878 5.09336667,43.9194169 4.08361667,43.9194169 C2.98199167,43.9194169 2.98199167,45.2707289 2.98199167,46.855277 L2.98199167,55.800758 C2.98199167,56.8564431 3.418325,57.4759767 4.153325,57.4759767 C4.88715833,57.4759767 5.25465833,56.8564431 5.25465833,55.800758 L5.25465833,52.1077551 L7.159825,52.1077551 Z" id="Fill-6"></path>
            <path d="M11.8768917,43.9631778 L10.9126417,52.9337318 L12.8175167,52.9337318 L11.8768917,43.9631778 Z M10.591225,42.334898 L13.139225,42.334898 L15.3427667,59.1279009 L13.552225,59.1279009 L13.0246,54.6098251 L10.7297667,54.6098251 L10.2021417,59.1279009 L8.4116,59.1279009 L10.591225,42.334898 Z" id="Fill-8"></path>
            <polygon id="Fill-10" points="16.9910917 42.334898 18.620925 42.334898 21.1000917 52.7276093 21.1913833 52.7276093 21.1913833 42.334898 22.8212167 42.334898 22.8212167 59.1279009 21.2368833 59.1279009 18.713675 48.712449 18.6442583 48.712449 18.6442583 59.1279009 16.9910917 59.1279009"></polygon>
            <path d="M31.3394875,52.1077551 L31.3394875,55.6182507 C31.3394875,57.7978426 30.1923625,59.2882216 28.3090708,59.2882216 C26.3811542,59.2882216 25.2337375,57.8666472 25.2337375,55.6404082 L25.2337375,46.1885131 C25.2337375,43.5517784 26.2443625,42.129621 28.1256125,42.129621 C30.2145292,42.129621 31.2242792,43.4818076 31.2242792,46.3042566 L31.2242792,48.5768513 L29.3191125,48.5768513 L29.3191125,46.3742274 C29.3191125,45.0893878 29.2736125,43.9194169 28.2632792,43.9194169 C27.1613625,43.9194169 27.1613625,45.2707289 27.1613625,46.855277 L27.1613625,55.800758 C27.1613625,56.8564431 27.5982792,57.4759767 28.3324042,57.4759767 C29.0671125,57.4759767 29.4340292,56.8564431 29.4340292,55.800758 L29.4340292,52.1077551 L31.3394875,52.1077551 Z" id="Fill-12"></path>
            <polygon id="Fill-14" points="33.334575 42.334898 38.7511167 42.334898 38.7511167 44.1246939 35.2622 44.1246939 35.2622 49.6308163 38.2692833 49.6308163 38.2692833 51.373965 35.2622 51.373965 35.2622 57.3389796 39.0037 57.3389796 39.0037 59.1279009 33.334575 59.1279009"></polygon>
            <path d="M42.5453792,49.9755685 L43.0499625,49.9755685 C44.4269208,49.9755685 44.7252958,49.5152187 44.7252958,47.4507872 C44.7252958,44.5373761 44.5190875,44.1469971 43.1873375,44.1469971 L42.5453792,44.1469971 L42.5453792,49.9755685 Z M40.6165875,42.3350437 L43.6003375,42.3350437 C45.6665042,42.3350437 46.6984208,43.6420408 46.6984208,46.2574927 L46.6984208,47.9554519 C46.6984208,49.6991837 46.3090458,50.5709038 45.2529208,51.236793 L47.2041708,59.1280466 L45.3223375,59.1280466 L43.4862958,51.74 L42.5453792,51.74 L42.5453792,59.1280466 L40.6165875,59.1280466 L40.6165875,42.3350437 Z" id="Fill-16"></path>
            <path d="M3.11892917,84.925481 L3.11892917,90.5266472 L3.7792625,90.5266472 C4.94097083,90.5266472 5.06755417,89.8560933 5.06755417,88.170379 L5.06755417,86.644723 C5.06755417,85.257551 4.87272083,84.925481 3.89330417,84.925481 L3.11892917,84.925481 Z M1.22892917,83.1278134 L3.61972083,83.1278134 C6.67230417,83.1278134 7.0491375,84.4141108 7.0491375,87.6240233 C7.0491375,90.1068222 6.9450125,92.2782507 4.14384583,92.2782507 L3.11892917,92.2782507 L3.11892917,99.7907872 L1.22892917,99.7907872 L1.22892917,83.1278134 Z" id="Fill-18"></path>
            <path d="M10.3656792,90.7089213 L10.8664708,90.7089213 C12.2329292,90.7089213 12.5289708,90.2529446 12.5289708,88.2045481 C12.5289708,85.3132945 12.3236375,84.9255394 11.0026792,84.9255394 L10.3656792,84.9255394 L10.3656792,90.7089213 Z M8.45234583,83.1275802 L11.4124708,83.1275802 C13.4625958,83.1275802 14.4872208,84.4249563 14.4872208,87.02 L14.4872208,88.7051312 C14.4872208,90.4345773 14.1001792,91.2998834 13.0525125,91.9593586 L14.9885958,99.7905539 L13.1213458,99.7905539 L11.2998875,92.4599417 L10.3656792,92.4599417 L10.3656792,99.7905539 L8.45234583,99.7905539 L8.45234583,83.1275802 Z" id="Fill-20"></path>
            <path d="M20.4504042,86.7246356 C20.4504042,85.2214286 20.1321958,84.6992711 19.2895708,84.6992711 C18.4688208,84.6992711 18.1503208,85.2677843 18.1503208,86.7698251 L18.1503208,95.9674927 C18.1503208,97.5590379 18.4688208,98.1523324 19.3347792,98.1523324 C20.1088625,98.1523324 20.4504042,97.5590379 20.4504042,96.21793 L20.4504042,86.7246356 Z M22.3637375,95.9890671 C22.3637375,98.5400875 21.2478208,99.9287172 19.3347792,99.9287172 C17.3304458,99.9287172 16.2369875,98.4718659 16.2369875,95.9890671 L16.2369875,86.8158892 C16.2369875,84.4249271 17.2852375,82.9231778 19.3123208,82.9231778 C21.3382375,82.9231778 22.3637375,84.3800292 22.3637375,86.7922741 L22.3637375,95.9890671 Z" id="Fill-22"></path>
            <path d="M25.6192042,92.7795335 L25.6192042,96.8556268 C25.6192042,97.7874052 25.8703292,98.1521283 26.4621208,98.1521283 C27.0092875,98.1521283 27.3053292,97.7874052 27.3053292,96.9235569 L27.3053292,83.1276385 L29.1953292,83.1276385 L29.1953292,96.9906122 C29.1953292,98.8130612 28.1479542,99.9285131 26.3944542,99.9285131 C24.7541208,99.9285131 23.7297875,98.7218076 23.7297875,96.7652478 L23.7297875,92.7795335 L25.6192042,92.7795335 Z" id="Fill-24"></path>
            <polygon id="Fill-26" points="31.0440583 83.1276968 36.0245583 83.1276968 36.0245583 84.903207 32.9568083 84.903207 32.9568083 90.3670554 35.546225 90.3670554 35.546225 92.0973761 32.9568083 92.0973761 32.9568083 98.016035 36.2745167 98.016035 36.2745167 99.7906706 31.0440583 99.7906706"></polygon>
            <path d="M43.5110875,92.8248397 L43.5110875,96.3085131 C43.5110875,98.4717784 42.3727125,99.9507872 40.5042958,99.9507872 C38.5915458,99.9507872 37.4528792,98.5402915 37.4528792,96.3306706 L37.4528792,86.9516618 C37.4528792,84.333586 38.4556292,82.9230904 40.3225875,82.9230904 C42.3945875,82.9230904 43.3976292,84.265656 43.3976292,87.0665306 L43.3976292,89.3201749 L41.5067542,89.3201749 L41.5067542,87.1353353 C41.5067542,85.8595335 41.4609625,84.6994752 40.4590875,84.6994752 C39.3656292,84.6994752 39.3656292,86.0420408 39.3656292,87.6137609 L39.3656292,96.4907289 C39.3656292,97.5385423 39.7987542,98.1522449 40.5279208,98.1522449 C41.2565042,98.1522449 41.6207958,97.5385423 41.6207958,96.4907289 L41.6207958,92.8248397 L43.5110875,92.8248397 Z" id="Fill-28"></path>
            <polygon id="Fill-30" points="44.3317792 83.1276968 49.9294458 83.1276968 49.9294458 84.8556851 48.0645292 84.8556851 48.0645292 99.7906706 46.1742375 99.7906706 46.1742375 84.8556851 44.3317792 84.8556851"></polygon>
        </g>
    </g>
</svg>