<?xml version="1.0" encoding="UTF-8" standalone="no"?>
<svg width="100px" height="100px" viewBox="0 0 100 100" version="1.1" xmlns="http://www.w3.org/2000/svg" xmlns:xlink="http://www.w3.org/1999/xlink">
    <!-- Generator: Sketch 3.8.3 (29802) - http://www.bohemiancoding.com/sketch -->
    <title>client-logo-branch</title>
    <desc>Created with Sketch.</desc>
    <defs>
        <polygon id="path-1" points="0.00824175824 0.104382353 99.8701923 0.104382353 99.8701923 39 0.00824175824 39"></polygon>
    </defs>
    <g id="Page-1" stroke="none" stroke-width="1" fill="none" fill-rule="evenodd">
        <g id="client-logo-branch">
            <g id="NewBranch_logo_white" transform="translate(0.000000, 24.000000)">
                <g id="Group-3">
                    <mask id="mask-2" fill="white">
                        <use xlink:href="#path-1"></use>
                    </mask>
                    <g id="Clip-2"></g>
                    <path d="M7.95247253,22.0050331 C6.0978022,22.0050331 4.76167582,22.5602096 3.94354396,23.6704191 C3.12541209,24.7806287 2.71634615,26.6509081 2.71634615,29.2812574 C2.71634615,31.9116066 3.13612637,33.7933566 3.97623626,34.926364 C4.81607143,36.0595147 6.16332418,36.6257316 8.01785714,36.6257316 C9.68695055,36.6257316 10.9304945,35.9911213 11.7486264,34.7213272 C12.5668956,33.4516765 12.9759615,31.627136 12.9759615,29.2471324 C12.9759615,26.8104926 12.5668956,24.994125 11.7486264,23.7986029 C10.9304945,22.6029375 9.66497253,22.0050331 7.95247253,22.0050331 L7.95247253,22.0050331 Z M8.34519231,19.6309081 C10.701511,19.6309081 12.5313187,20.4708419 13.8350275,22.1502794 C15.1384615,23.8300037 15.7903846,26.2068529 15.7903846,29.2812574 C15.7903846,32.3558051 15.132967,34.7442684 13.8186813,36.4463603 C12.5039835,38.148739 10.679533,39 8.34519231,39 C7.17774725,39 6.11167582,38.7748897 5.14615385,38.3252426 C4.18076923,37.8755956 3.37087912,37.1837757 2.71634615,36.2499265 L2.51991758,36.2499265 L1.94725275,38.6583199 L0,38.6583199 L0,12.0815404 L2.71634615,12.0815404 L2.71634615,18.5379044 C2.71634615,19.9840588 2.67252747,21.2820993 2.5853022,22.4321691 L2.71634615,22.4321691 C3.98159341,20.5647574 5.85796703,19.6309081 8.34519231,19.6309081 L8.34519231,19.6309081 Z" id="Fill-1" fill="#000E30" mask="url(#mask-2)"></path>
                </g>
                <path d="M27.8831044,19.5967831 C28.6792582,19.5967831 29.3938187,19.6651765 30.0266484,19.8018199 L29.6502747,22.4321691 C28.9083791,22.2612574 28.2538462,22.1759449 27.6866758,22.1759449 C26.2358516,22.1759449 24.9949176,22.7907684 23.964011,24.0205588 C22.9332418,25.2503493 22.4178571,26.7819596 22.4178571,28.6151029 L22.4178571,38.6583199 L19.701511,38.6583199 L19.701511,19.9384632 L21.9432692,19.9384632 L22.2541209,23.4057353 L22.3850275,23.4057353 C23.0502747,22.1874154 23.8520604,21.2479743 24.7903846,20.5874118 C25.7284341,19.9272794 26.7593407,19.5967831 27.8831044,19.5967831" id="Fill-4" fill="#000E30"></path>
                <path d="M37.5769231,36.6598566 C39.2677198,36.6598566 40.5958791,36.1760846 41.5612637,35.2081103 C42.5266484,34.2402794 43.009478,32.8851728 43.009478,31.1430772 L43.009478,29.4521691 L40.2932692,29.5716066 C38.1332418,29.6513272 36.5759615,30.0016103 35.6215659,30.6220257 C34.6668956,31.2428713 34.1896978,32.2079779 34.1896978,33.5170588 C34.1896978,34.5419559 34.4868132,35.3219559 35.081456,35.8572022 C35.6759615,36.3924485 36.5076923,36.6598566 37.5769231,36.6598566 L37.5769231,36.6598566 Z M43.7130495,38.6583199 L43.1730769,35.9938456 L43.0421703,35.9938456 C42.1476648,37.1668566 41.2557692,37.9610515 40.3668956,38.3764301 C39.4776099,38.7919522 38.3677198,39 37.0368132,39 C35.2586538,39 33.8651099,38.5216765 32.8561813,37.5651728 C31.846978,36.6086691 31.3424451,35.248114 31.3424451,33.4829338 C31.3424451,29.7026581 34.2387363,27.7214007 40.0313187,27.5391618 L43.0748626,27.4366434 L43.0748626,26.2752463 C43.0748626,24.8062941 42.7721154,23.72175 42.1667582,23.0213272 C41.5612637,22.3210478 40.5929945,21.9709081 39.2623626,21.9709081 C37.7675824,21.9709081 36.0767857,22.4492316 34.1896978,23.4057353 L33.3552198,21.2365037 C34.2387363,20.7355257 35.2067308,20.3428015 36.2596154,20.0579007 C37.3122253,19.7734301 38.3677198,19.6309081 39.4259615,19.6309081 C41.5638736,19.6309081 43.1486264,20.1262941 44.1793956,21.1169228 C45.2101648,22.1075515 45.7256868,23.6960846 45.7256868,25.8822353 L45.7256868,38.6583199 L43.7130495,38.6583199 L43.7130495,38.6583199 Z" id="Fill-5" fill="#000E30"></path>
                <path d="M62.0733516,38.6583199 L62.0733516,26.5483897 C62.0733516,25.0226581 61.7403846,23.8839154 61.0752747,23.1324485 C60.4096154,22.3808382 59.3678571,22.0050331 57.9498626,22.0050331 C56.0733516,22.0050331 54.6989011,22.5345441 53.8263736,23.5935662 C52.9534341,24.6525882 52.5173077,26.4005625 52.5173077,28.8372022 L52.5173077,38.6583199 L49.8009615,38.6583199 L49.8009615,19.9384632 L52.0100275,19.9384632 L52.4517857,22.5004191 L52.5826923,22.5004191 C53.139011,21.5780404 53.918956,20.8637096 54.9225275,20.3568529 C55.9260989,19.8504265 57.0442308,19.5967831 58.2770604,19.5967831 C60.4369505,19.5967831 62.0623626,20.1406324 63.1531593,21.2279007 C64.243956,22.3154559 64.7895604,24.0546838 64.7895604,26.4460147 L64.7895604,38.6583199 L62.0733516,38.6583199" id="Fill-6" fill="#000E30"></path>
                <path d="M76.5649725,39 C73.9686813,39 71.9587912,38.1658015 70.5353022,36.4976912 C69.1115385,34.8297243 68.3998626,32.4696507 68.3998626,29.4180441 C68.3998626,26.2865735 69.1222527,23.8668529 70.5679945,22.1588824 C72.0131868,20.4509118 74.0722527,19.5967831 76.7450549,19.5967831 C77.6065934,19.5967831 78.4684066,19.6937096 79.3303571,19.8871324 C80.1918956,20.0808419 80.868544,20.3085331 81.3593407,20.5703493 L80.5248626,22.9785993 C79.9248626,22.7283971 79.2701923,22.5204926 78.5612637,22.3553162 C77.8520604,22.1902831 77.2248626,22.1075515 76.679533,22.1075515 C73.035989,22.1075515 71.2142857,24.5330074 71.2142857,29.3837757 C71.2142857,31.6839154 71.6586538,33.4488088 72.5478022,34.6785993 C73.4369505,35.9083897 74.7539835,36.5232132 76.4995879,36.5232132 C77.993956,36.5232132 79.5267857,36.1874118 81.0975275,35.5155221 L81.0975275,38.0264338 C79.8975275,38.6753824 78.3866758,39 76.5649725,39" id="Fill-7" fill="#000E30"></path>
                <path d="M98.2206044,20.9364044 C97.1037088,19.8289191 95.4412088,19.2747463 93.2075549,19.2747463 C91.9182692,19.2747463 90.7773352,19.5372794 89.7717033,20.0649265 C88.7657967,20.5930037 87.9971154,21.2261801 87.4527473,22.2298566 L87.285989,22.2298566 C87.3748626,21.5129449 87.4193681,20.7639154 87.4193681,19.777875 L87.3637363,18.724875 L92.6421703,15.4817096 L91.728022,13.8607721 L87.2519231,16.6112757 L86.9679945,11.2390257 L90.7895604,8.79421324 L89.8478022,7.19033824 L86.8552198,9.10477941 L86.5423077,3.18108088 L84.9159341,3.34295956 L84.6696429,13.1670882 L81.4781593,11.0510515 L80.5119505,12.639011 L84.6034341,15.3518051 C84.6031593,15.409875 84.6008242,15.4266507 84.6008242,15.484864 L84.6521978,38.5754449 L87.3701923,38.5754449 L87.3701923,28.6880846 C87.3701923,26.2059926 87.8365385,24.4194485 88.7200549,23.3288824 C89.6034341,22.2387463 91.0186813,21.6933199 92.9413462,21.6933199 C94.3858516,21.6933199 95.4377747,22.0761507 96.1156593,22.8416691 C96.7934066,23.6073309 97.1229396,24.7674375 97.1229396,26.3217022 L97.1229396,38.5754449 L99.8701923,38.5754449 L99.8701923,26.2173199 C99.8701923,23.8047684 99.3375,22.0443199 98.2206044,20.9364044" id="Fill-8" fill="#000E30"></path>
                <path d="M95.1223901,13.8610588 C95.1223901,14.9897647 94.2458791,15.9048309 93.1644231,15.9048309 C92.0831044,15.9048309 91.2065934,14.9897647 91.2065934,13.8610588 C91.2065934,12.7323529 92.0831044,11.8172868 93.1644231,11.8172868 C94.2458791,11.8172868 95.1223901,12.7323529 95.1223901,13.8610588" id="Fill-9" fill="#000E30"></path>
                <path d="M95.1223901,13.8610588 C95.1223901,14.9897647 94.2458791,15.9048309 93.1644231,15.9048309 C92.0831044,15.9048309 91.2065934,14.9897647 91.2065934,13.8610588 C91.2065934,12.7323529 92.0831044,11.8172868 93.1644231,11.8172868 C94.2458791,11.8172868 95.1223901,12.7323529 95.1223901,13.8610588 L95.1223901,13.8610588 Z" id="Stroke-10" stroke="#000E30" stroke-width="1.32"></path>
                <path d="M93.3993132,7.19048162 C93.3993132,8.31904412 92.5228022,9.23411029 91.4413462,9.23411029 C90.3600275,9.23411029 89.4835165,8.31904412 89.4835165,7.19048162 C89.4835165,6.06163235 90.3600275,5.14670956 91.4413462,5.14670956 C92.5228022,5.14670956 93.3993132,6.06163235 93.3993132,7.19048162" id="Fill-12" fill="#000E30"></path>
                <path d="M93.3993132,7.19048162 C93.3993132,8.31904412 92.5228022,9.23411029 91.4413462,9.23411029 C90.3600275,9.23411029 89.4835165,8.31904412 89.4835165,7.19048162 C89.4835165,6.06163235 90.3600275,5.14670956 91.4413462,5.14670956 C92.5228022,5.14670956 93.3993132,6.06163235 93.3993132,7.19048162 L93.3993132,7.19048162 Z" id="Stroke-13" stroke="#000E30" stroke-width="1.32"></path>
                <path d="M81.8869505,11.0511949 C81.8869505,12.1797574 81.0104396,13.0948235 79.9289835,13.0948235 C78.8476648,13.0948235 77.9711538,12.1797574 77.9711538,11.0511949 C77.9711538,9.92234559 78.8476648,9.00727941 79.9289835,9.00727941 C81.0104396,9.00727941 81.8869505,9.92234559 81.8869505,11.0511949" id="Fill-14" fill="#000E30"></path>
                <path d="M81.8869505,11.0511949 C81.8869505,12.1797574 81.0104396,13.0948235 79.9289835,13.0948235 C78.8476648,13.0948235 77.9711538,12.1797574 77.9711538,11.0511949 C77.9711538,9.92234559 78.8476648,9.00727941 79.9289835,9.00727941 C81.0104396,9.00727941 81.8869505,9.92234559 81.8869505,11.0511949 L81.8869505,11.0511949 Z" id="Stroke-15" stroke="#000E30" stroke-width="1.32"></path>
                <path d="M87.7364011,2.64999265 C87.7364011,3.77869853 86.8597527,4.69376471 85.7784341,4.69376471 C84.6971154,4.69376471 83.820467,3.77869853 83.820467,2.64999265 C83.820467,1.52128676 84.6971154,0.606220588 85.7784341,0.606220588 C86.8597527,0.606220588 87.7364011,1.52128676 87.7364011,2.64999265" id="Fill-16" fill="#000E30"></path>
                <path d="M87.7364011,2.64999265 C87.7364011,3.77869853 86.8597527,4.69376471 85.7784341,4.69376471 C84.6971154,4.69376471 83.820467,3.77869853 83.820467,2.64999265 C83.820467,1.52128676 84.6971154,0.606220588 85.7784341,0.606220588 C86.8597527,0.606220588 87.7364011,1.52128676 87.7364011,2.64999265 L87.7364011,2.64999265 Z" id="Stroke-17" stroke="#000E30" stroke-width="1.32"></path>
            </g>
        </g>
    </g>
</svg>