<?xml version="1.0" encoding="UTF-8" standalone="no"?>
<svg width="100px" height="100px" viewBox="0 0 100 100" version="1.1" xmlns="http://www.w3.org/2000/svg" xmlns:xlink="http://www.w3.org/1999/xlink">
    <!-- Generator: Sketch 3.8.3 (29802) - http://www.bohemiancoding.com/sketch -->
    <title>client-logo-xobi</title>
    <desc>Created with Sketch.</desc>
    <defs></defs>
    <g id="Page-1" stroke="none" stroke-width="1" fill="none" fill-rule="evenodd">
        <g id="client-logo-xobi" fill="#000E30">
            <g id="XOBI" transform="translate(0.000000, 32.000000)">
                <path d="M33.7268658,5.148 C30.4268658,8.5635 28.8014927,12.8205 28.8014927,17.919 C28.8014927,23.0175 30.4268658,27.324 33.7268658,30.7395 C37.0268658,34.155 41.1641792,35.838 46.1388061,35.838 C51.113433,35.838 55.2014927,34.155 58.5014927,30.7395 C61.8014927,27.324 63.4761195,23.0175 63.4761195,17.919 C63.4761195,12.8205 61.8014927,8.5635 58.5014927,5.148 C55.2014927,1.7325 51.113433,0 46.1388061,0 C41.1641792,0 37.0268658,1.7325 33.7268658,5.148 L33.7268658,5.148 Z M36.435821,28.2645 C33.8253733,25.4925 32.4955225,22.0275 32.4955225,17.919 C32.4955225,13.8105 33.8253733,10.3455 36.435821,7.5735 C39.0462688,4.8015 42.2970151,3.4155 46.1388061,3.4155 C49.9805972,3.4155 53.2313434,4.8015 55.8417912,7.5735 C58.4522389,10.3455 59.7820897,13.8105 59.7820897,17.919 C59.7820897,22.0275 58.4522389,25.4925 55.8417912,28.2645 C53.2313434,31.0365 49.9805972,32.4225 46.1388061,32.4225 C42.2970151,32.4225 39.0462688,31.0365 36.435821,28.2645 L36.435821,28.2645 Z M82.1805973,35.244 C89.2238809,35.244 93.5089555,31.383 93.5089555,25.5915 C93.5089555,20.493 90.5537316,17.0775 86.0223883,16.335 C88.829851,15.2955 90.5537316,12.6225 90.5537316,9.009 C90.5537316,3.8115 86.7611943,0.594 80.6537316,0.594 L65.729851,0.594 L65.729851,35.244 L82.1805973,35.244 Z M69.3746272,18.4635 L81.5402988,18.4635 C86.6626869,18.4635 89.6179107,20.9385 89.6179107,25.146 C89.6179107,29.4525 86.6626869,31.9275 81.5402988,31.9275 L69.3746272,31.9275 L69.3746272,18.4635 Z M69.3746272,3.9105 L80.0626869,3.9105 C84.4462689,3.9105 86.9582092,5.94 86.9582092,9.6525 C86.9582092,13.266 84.4462689,15.246 80.0626869,15.246 L69.3746272,15.246 L69.3746272,3.9105 Z M99.2597019,35.244 L99.2597019,0.594 L95.6149258,0.594 L95.6149258,35.244 L99.2597019,35.244 Z"></path>
                <polygon id="Path" points="4.28507463 35.244 16.0074627 19.3545 27.7298507 35.244 32.0641791 35.244 18.2238806 16.3845 16.0567164 13.464 6.55074627 0.594 2.26567164 0.594 13.8402985 16.434 0 35.244"></polygon>
                <polygon id="Path" points="19.5298038 14.2832996 21.6818349 11.667041 29.7985075 0.594 25.6119403 0.594 18.5897904 10.0521844 17.4731447 11.5562026"></polygon>
            </g>
        </g>
    </g>
</svg>