<?xml version="1.0" encoding="UTF-8" standalone="no"?>
<svg width="100px" height="100px" viewBox="0 0 100 100" version="1.1" xmlns="http://www.w3.org/2000/svg" xmlns:xlink="http://www.w3.org/1999/xlink">
    <!-- Generator: Sketch 3.8.3 (29802) - http://www.bohemiancoding.com/sketch -->
    <title>client-logo-krank-coolgrey3</title>
    <desc>Created with Sketch.</desc>
    <defs></defs>
    <g id="Page-1" stroke="none" stroke-width="1" fill="none" fill-rule="evenodd">
        <g id="client-logo-krank-coolgrey3" fill="#B6C1D1">
            <path d="M10.0846024,38 L3.38409475,38 L0,62.3654822 L6.66666667,62.3654822 L7.20812183,58.5076142 L8.56175973,57.4585448 L10.9306261,62.3654822 L18.8155668,62.3654822 L13.9763113,52.8900169 L21.1505922,45.072758 L13.5025381,45.072758 L8.18950931,51.5025381 L10.0846024,38 Z M33.0964467,44.7343486 C30.3553299,44.7343486 28.392555,47.0693739 28.1218274,47.5769882 L27.749577,45.072758 L22.7411168,45.072758 L20.3045685,62.3654822 L26.8358714,62.3654822 L28.392555,51.2656514 C28.5279188,50.3181049 29.1370558,49.5736041 30.0846024,49.5736041 C30.7614213,49.5736041 31.2690355,49.9458545 31.2690355,50.9949239 C31.2690355,51.2656514 31.1675127,51.6717428 31.1675127,52.0778342 L36.6497462,52.0778342 C36.8866328,50.7918782 37.2250423,49.3705584 37.2250423,48.4906937 C37.2250423,46.1895093 35.8037225,44.7343486 33.0964467,44.7343486 L33.0964467,44.7343486 Z M45.786802,44.7343486 C40,44.7343486 37.6649746,50.9610829 37.6649746,55.8341794 C37.6649746,59.6243655 39.2554992,62.7038917 43.4517766,62.7038917 C45.3807107,62.7038917 47.3096447,61.5532995 48.4940778,60.0642978 C49.035533,62.3654822 51.0659898,62.7038917 53.0964467,62.7038917 C54.179357,62.7038917 55.6006768,62.4331641 56.5820643,61.9255499 L57.0896785,58.2030457 C56.7174281,58.4399323 56.2774958,58.642978 55.8375635,58.642978 C55.1945854,58.642978 54.9576988,58.2368866 54.9576988,57.7292724 C54.9576988,56.6463621 55.8037225,50.7241963 56.751269,45.072758 L51.7089679,45.072758 L50.5583756,47.1370558 L50.3891709,47.1370558 C49.4077834,45.5465313 47.5803723,44.7343486 45.786802,44.7343486 L45.786802,44.7343486 Z M47.4450085,48.964467 C48.4940778,48.964467 49.2385787,49.607445 49.2385787,50.927242 C49.2385787,51.2318105 49.035533,52.5516074 48.8663283,53.8037225 L48.5279188,56.2402707 C48.3248731,57.5600677 47.5465313,58.6091371 46.0913706,58.6091371 C45.0423012,58.6091371 44.2978003,57.7969543 44.2978003,56.6125212 C44.2978003,56.4771574 44.2978003,56.3417936 45.0084602,51.3333333 C45.177665,50.0135364 46.1928934,48.964467 47.4450085,48.964467 L47.4450085,48.964467 Z M72.5211506,44.7343486 C68.5956007,44.7343486 66.9373942,46.8663283 66.3959391,47.5769882 L66.0913706,45.072758 L61.0490694,45.072758 L58.6125212,62.3654822 L65.3130288,62.3654822 L66.8358714,51.536379 C67.0050761,50.4196277 67.715736,49.5059222 68.9001692,49.5059222 C69.9492386,49.5059222 70.4568528,50.250423 70.4568528,51.1979695 C70.4568528,52.0101523 69.5769882,57.2554992 68.9001692,62.3654822 L75.6006768,62.3654822 C75.9729272,60.0642978 76.2098139,57.9661591 76.4805415,56.1049069 L76.8189509,53.7360406 C77.1573604,51.4010152 77.394247,49.5059222 77.394247,49.0998308 C77.394247,46.6294416 75.7698816,44.7343486 72.5211506,44.7343486 L72.5211506,44.7343486 Z M88.9340102,38 L82.2335025,38 L78.8494078,62.3654822 L85.5160745,62.3654822 L86.0575296,58.5076142 L87.4111675,57.4585448 L89.7800338,62.3654822 L97.6649746,62.3654822 L92.8257191,52.8900169 L100,45.072758 L92.3519459,45.072758 L87.0389171,51.5025381 L88.9340102,38 Z" id="krank"></path>
        </g>
    </g>
</svg>