<?xml version="1.0" encoding="UTF-8" standalone="no"?>
<svg width="100px" height="100px" viewBox="0 0 100 100" version="1.1" xmlns="http://www.w3.org/2000/svg" xmlns:xlink="http://www.w3.org/1999/xlink">
    <!-- Generator: Sketch 3.8.3 (29802) - http://www.bohemiancoding.com/sketch -->
    <title>client-logo-cloudapp-coolgrey3</title>
    <desc>Created with Sketch.</desc>
    <defs></defs>
    <g id="Page-1" stroke="none" stroke-width="1" fill="none" fill-rule="evenodd">
        <g id="client-logo-cloudapp-coolgrey3" fill="#B6C1D1">
            <g id="Group-3" transform="translate(20.000000, 12.000000)">
                <path d="M44.3724935,41.8802083 C52.8747802,41.8802083 59.7672994,35.098406 59.7672994,26.7321263 C59.7672994,18.3658465 52.8747802,11.5835837 44.3724935,11.5835837 C44.229767,11.5835837 44.0865726,11.585886 43.9438461,11.5900303 C42.3177001,4.94084326 36.2347442,0 28.9781555,0 C20.4758687,0 13.5833495,6.78226285 13.5833495,15.1485426 C6.08155202,15.1485426 0,21.1323504 0,28.5141452 C0,35.89594 6.08155202,41.8802083 13.5833495,41.8802083 L44.3724935,41.8802083" id="Fill-1"></path>
            </g>
            <g id="Group" transform="translate(0.000000, 71.000000)">
                <path d="M10.3038345,4.57408701 C10.1117219,4.25552881 9.8715247,3.9760918 9.58324294,3.73507737 C9.29496118,3.49452867 8.96875355,3.30684014 8.60507155,3.17224464 C8.24138954,3.03788201 7.86032485,2.97058426 7.46232897,2.97058426 C6.73451347,2.97058426 6.11686359,3.11589151 5.60915358,3.40580742 C5.10121783,3.69618905 4.68922549,4.08553796 4.37362807,4.57408701 C4.05757916,5.06263606 3.8279922,5.61848286 3.68373844,6.24139454 C3.53971044,6.86477195 3.46747068,7.50887428 3.46747068,8.17440011 C3.46747068,8.81174937 3.53971044,9.43140095 3.68373844,10.033122 C3.8279922,10.6350759 4.05757916,11.176718 4.37362807,11.6578154 C4.68922549,12.1396114 5.10121783,12.5254673 5.60915358,12.8153832 C6.11686359,13.1057649 6.73451347,13.2508392 7.46232897,13.2508392 C8.45065908,13.2508392 9.22294717,12.9394998 9.77874177,12.3161224 C10.3347621,11.6934436 10.6747404,10.8718988 10.7982253,9.85241939 L13.9280125,9.85241939 C13.8458398,10.8013409 13.6327325,11.6578154 13.2898195,12.4223085 C12.9464549,13.1872673 12.4936019,13.8385884 11.9305834,14.3767376 C11.3675648,14.9148867 10.7086028,15.3254262 9.95392316,15.6085891 C9.19879201,15.8917519 8.36826061,16.0333333 7.46232897,16.0333333 C6.33651758,16.0333333 5.32403231,15.831673 4.42487315,15.4281193 C3.52571398,15.0245657 2.76742234,14.4687189 2.14954671,13.7605789 C1.53189683,13.0526718 1.05827496,12.2206481 0.728681088,11.2649735 C0.399312969,10.309066 0.234741784,9.27887491 0.234741784,8.17440011 C0.234741784,7.04174873 0.399312969,5.99013409 0.728681088,5.02002192 C1.05827496,4.05037547 1.53189683,3.20391417 2.14954671,2.48180235 C2.76742234,1.75969053 3.52571398,1.1935977 4.42487315,0.782592424 C5.32403231,0.372052874 6.33651758,0.166666667 7.46232897,0.166666667 C8.27209144,0.166666667 9.03760706,0.287057448 9.75819859,0.527606146 C10.4790159,0.768620573 11.1239814,1.11908116 11.6939982,1.57922079 C12.2633377,2.03959327 12.7337991,2.60941192 13.1044793,3.28914246 C13.4751596,3.96887301 13.7083585,4.74757083 13.8045277,5.62546879 L10.6747404,5.62546879 C10.6196576,5.2431058 10.4961728,4.89264521 10.3038345,4.57408701" id="Fill-4"></path>
                <polygon id="Fill-5" points="15.8841941 0.166666667 19.7965571 0.166666667 19.7965571 16.0333333 15.8841941 16.0333333"></polygon>
                <path d="M24.9993723,11.4285914 C25.0871581,11.8590644 25.2369954,12.2454109 25.4491245,12.5881105 C25.6610131,12.9308102 25.9428898,13.2042025 26.2937928,13.4082875 C26.6449362,13.6126123 27.083625,13.7145348 27.6100996,13.7145348 C28.1365742,13.7145348 28.5788706,13.6126123 28.9374698,13.4082875 C29.295588,13.2042025 29.5808319,12.9308102 29.792961,12.5881105 C30.0046091,12.2454109 30.1549274,11.8590644 30.2429537,11.4285914 C30.3304991,10.998598 30.3745123,10.5573333 30.3745123,10.1050368 C30.3745123,9.65322007 30.3304991,9.20835802 30.2429537,8.77093032 C30.1549274,8.3332628 30.0046091,7.94715611 29.792961,7.61141116 C29.5808319,7.27614585 29.295588,7.00275354 28.9374698,6.79123422 C28.5788706,6.57995472 28.1365742,6.47371543 27.6100996,6.47371543 C27.083625,6.47371543 26.6449362,6.57995472 26.2937928,6.79123422 C25.9428898,7.00275354 25.6610131,7.27614585 25.4491245,7.61141116 C25.2369954,7.94715611 25.0871581,8.3332628 24.9993723,8.77093032 C24.9118269,9.20835802 24.8678137,9.65322007 24.8678137,10.1050368 C24.8678137,10.5573333 24.9118269,10.998598 24.9993723,11.4285914 L24.9993723,11.4285914 Z M22.1693006,7.64402639 C22.4470887,6.9080255 22.8420048,6.2809019 23.3540489,5.76313523 C23.8658524,5.24536856 24.4801129,4.84439317 25.1968303,4.55972942 C25.9133072,4.27530548 26.7178105,4.13333333 27.6100996,4.13333333 C28.5019077,4.13333333 29.3104996,4.27530548 30.0344323,4.55972942 C30.7581244,4.84439317 31.3759925,5.24536856 31.8880366,5.76313523 C32.3998402,6.2809019 32.7945158,6.9080255 33.0725444,7.64402639 C33.3503325,8.38098654 33.4898279,9.20116349 33.4898279,10.1050368 C33.4898279,11.0096297 33.3503325,11.8262093 33.0725444,12.5552555 C32.7945158,13.2845415 32.3998402,13.907828 31.8880366,14.4255947 C31.3759925,14.9433613 30.7581244,15.3407395 30.0344323,15.6174892 C29.3104996,15.8944788 28.5019077,16.0333333 27.6100996,16.0333333 C26.7178105,16.0333333 25.9133072,15.8944788 25.1968303,15.6174892 C24.4801129,15.3407395 23.8658524,14.9433613 23.3540489,14.4255947 C22.8420048,13.907828 22.4470887,13.2845415 22.1693006,12.5552555 C21.8915125,11.8262093 21.7527387,11.0096297 21.7527387,10.1050368 C21.7527387,9.20116349 21.8915125,8.38098654 22.1693006,7.64402639 L22.1693006,7.64402639 Z" id="Fill-6"></path>
                <path d="M42.5042254,15.7413964 L42.5042254,14.1249124 L42.4438686,14.1249124 C42.080843,14.7983859 41.6099268,15.2850295 41.0322253,15.584351 C40.4540817,15.8834264 39.8624518,16.0333333 39.2575566,16.0333333 C38.4912676,16.0333333 37.8624949,15.9210878 37.3719019,15.6965966 C36.8810879,15.4721055 36.494627,15.1540763 36.2122984,14.7422631 C35.9301908,14.330696 35.7314333,13.8295293 35.6175732,13.2377786 C35.5030499,12.6467662 35.4460094,11.9917542 35.4460094,11.2732349 L35.4460094,4.13333333 L38.3095337,4.13333333 L38.3095337,10.6896071 C38.3095337,11.6476329 38.4439549,12.3622139 38.7130183,12.8338422 C38.9818606,13.3052244 39.4591883,13.5410385 40.1447804,13.5410385 C40.9245558,13.5410385 41.488992,13.2828245 41.8387523,12.7663964 C42.1882915,12.2499683 42.3629506,11.4007419 42.3629506,10.2179788 L42.3629506,4.13333333 L45.2269171,4.13333333 L45.2269171,15.7413964 L42.5042254,15.7413964" id="Fill-7"></path>
                <path d="M55.7293043,8.73285782 C55.6400163,8.30385439 55.4873705,7.92533603 55.2718562,7.59802053 C55.0560973,7.27070503 54.7769806,7.00535935 54.4349954,6.80150496 C54.0925209,6.59788984 53.6614924,6.49572338 53.1409312,6.49572338 C52.6198807,6.49572338 52.1812688,6.59788984 51.8243615,6.80150496 C51.4674542,7.00535935 51.1807541,7.27429402 50.9652398,7.60902675 C50.7494809,7.94375949 50.5934104,8.32586684 50.4965391,8.75487026 C50.3999123,9.18411296 50.3514767,9.63153985 50.3514767,10.0969117 C50.3514767,10.5333323 50.4035817,10.9699923 50.5077918,11.4064129 C50.6117572,11.8428336 50.7793251,12.2323582 51.0100061,12.5740296 C51.2401979,12.9159403 51.5305673,13.1927708 51.8803805,13.4035639 C52.2294598,13.6143569 52.6499696,13.7198731 53.1409312,13.7198731 C53.6614924,13.7198731 54.0964349,13.6181852 54.4462481,13.4143308 C54.7953275,13.2107157 55.0744442,12.9379528 55.283109,12.5960421 C55.4910399,12.2541314 55.6400163,11.864846 55.7293043,11.4284254 C55.8183476,10.9920047 55.8631139,10.5409888 55.8631139,10.0751385 C55.8631139,9.60976667 55.8183476,9.16233978 55.7293043,8.73285782 L55.7293043,8.73285782 Z M55.8631139,14.3091846 C55.4910399,14.9202692 55.0039923,15.3605181 54.4014818,15.6294528 C53.7989714,15.8986267 53.1184257,16.0333333 52.3598448,16.0333333 C51.4970537,16.0333333 50.7384728,15.8694363 50.0838573,15.5421208 C49.4292418,15.2148053 48.8900892,14.7712067 48.4661547,14.2110856 C48.0422203,13.6509646 47.7220066,13.0071006 47.506737,12.2792543 C47.290978,11.5518865 47.1830986,10.7953283 47.1830986,10.0095797 C47.1830986,9.25326075 47.290978,8.52206472 47.506737,7.81623086 C47.7220066,7.11087553 48.0422203,6.48878467 48.4661547,5.95019755 C48.8900892,5.41208895 49.4219031,4.97925727 50.0615965,4.65170251 C50.7010452,4.32438701 51.4449487,4.16072926 52.2930623,4.16072926 C52.9770327,4.16072926 53.6279788,4.30237456 54.2451667,4.5861437 C54.8625992,4.8701521 55.3498915,5.28838858 55.7067988,5.84109238 L55.7515651,5.84109238 L55.7515651,0.166666667 L58.9201878,0.166666667 L58.9201878,15.7495642 L55.9076356,15.7495642 L55.9076356,14.3091846 L55.8631139,14.3091846 L55.8631139,14.3091846 Z" id="Fill-8"></path>
                <path d="M70.1637286,9.47768702 L67.7023686,2.07788765 L67.6608698,2.07788765 L65.1580109,9.47768702 L70.1637286,9.47768702 L70.1637286,9.47768702 Z M68.7985741,0.166666667 L74.5696401,16.0333333 L72.3978652,16.0333333 L70.7841709,11.2556463 L64.5373418,11.2556463 L62.882829,16.0333333 L60.8763693,16.0333333 L66.6265725,0.166666667 L68.7985741,0.166666667 L68.7985741,0.166666667 Z" id="Fill-9"></path>
                <path d="M84.3205671,8.405847 C84.1940795,7.90340974 84.0012843,7.45536126 83.7417439,7.06194115 C83.4822036,6.66852104 83.1493529,6.35536629 82.7438485,6.12223732 C82.3374686,5.88910835 81.8619364,5.77242407 81.3163765,5.77242407 C80.7441184,5.77242407 80.2585197,5.89653589 79.8593615,6.14404075 C79.4602033,6.39202481 79.1339177,6.71620106 78.8811613,7.11680912 C78.6281861,7.51741717 78.4450197,7.9726536 78.3321,8.4825184 C78.2189614,8.99286239 78.1625015,9.50967554 78.1625015,10.0341558 C78.1625015,10.5881067 78.2224628,11.1236085 78.3421665,11.6404216 C78.4618702,12.1579536 78.6516016,12.61319 78.911142,13.0066101 C79.1706823,13.3997906 79.5065967,13.7167789 79.9191039,13.9570958 C80.3313923,14.1976523 80.8305589,14.317691 81.416166,14.317691 C82.0017731,14.317691 82.4906544,14.194298 82.8832475,13.9460743 C83.2756217,13.6985695 83.5920596,13.3707992 83.831467,12.9627636 C84.0710932,12.5552072 84.2437554,12.0884701 84.3505477,11.5639898 C84.4569024,11.0397491 84.5102985,10.500893 84.5102985,9.94670251 C84.5102985,9.42246182 84.4470547,8.90876345 84.3205671,8.405847 L84.3205671,8.405847 Z M78.2224628,4.39569327 L78.2224628,5.92552727 L78.2622911,5.92552727 C78.5417456,5.29921778 78.9809509,4.84374176 79.579907,4.55957839 C80.1786443,4.27541502 80.8373429,4.13333333 81.5560027,4.13333333 C82.3543191,4.13333333 83.0495634,4.29386407 83.6419544,4.61420676 C84.2339078,4.93478904 84.7262904,5.36822204 85.1191023,5.91450575 C85.5114766,6.46078947 85.8077815,7.09141172 86.0073606,7.80517451 C86.2069397,8.51917691 86.3067293,9.27678616 86.3067293,10.0780023 C86.3067293,10.879458 86.2102223,11.6373068 86.0174271,12.35083 C85.8241943,13.065072 85.5313907,13.6877875 85.1390165,14.2194558 C84.7464234,14.7516032 84.2538219,15.1701811 83.6618685,15.4761479 C83.0696963,15.7821147 82.3807983,15.9349783 81.5960498,15.9349783 C81.3428557,15.9349783 81.0598998,15.9057473 80.7476198,15.8477646 C80.4346833,15.7893026 80.125467,15.6946614 79.8193144,15.5633616 C79.5131618,15.432541 79.2236408,15.2540404 78.9511891,15.0280994 C78.6782997,14.802398 78.4487399,14.5220682 78.2622911,14.1866308 L78.2224628,14.1866308 L78.2224628,20 L76.5258216,20 L76.5258216,4.39569327 L78.2224628,4.39569327 L78.2224628,4.39569327 Z" id="Fill-10"></path>
                <path d="M96.0138823,8.405847 C95.8871786,7.90340974 95.6946066,7.45536126 95.4350721,7.06194115 C95.1755375,6.66852104 94.8426943,6.35536629 94.4371989,6.12223732 C94.0308282,5.88910835 93.5553066,5.77242407 93.0097588,5.77242407 C92.4375136,5.77242407 91.9519258,5.89653589 91.5527765,6.14404075 C91.1536272,6.39202481 90.8271301,6.71620106 90.5745982,7.11680912 C90.3216286,7.51741717 90.1384664,7.9726536 90.0255491,8.4825184 C89.9124131,8.99286239 89.8559545,9.50967554 89.8559545,10.0341558 C89.8559545,10.5881067 89.9156955,11.1236085 90.0356154,11.6404216 C90.1553164,12.1579536 90.3450436,12.61319 90.6045782,13.0066101 C90.8638939,13.3997906 91.2000196,13.7167789 91.6125176,13.9570958 C92.0247968,14.1976523 92.5237333,14.317691 93.1095462,14.317691 C93.6951402,14.317691 94.1840105,14.194298 94.5765948,13.9460743 C94.9689603,13.6985695 95.2851723,13.3707992 95.5247931,12.9627636 C95.764414,12.5552072 95.9370723,12.0884701 96.0438622,11.5639898 C96.1502145,11.0397491 96.2036095,10.500893 96.2036095,9.94670251 C96.2036095,9.42246182 96.1403671,8.90876345 96.0138823,8.405847 L96.0138823,8.405847 Z M89.9156955,4.39569327 L89.9156955,5.92552727 L89.9557418,5.92552727 C90.23519,5.29921778 90.6743855,4.84374176 91.2733282,4.55957839 C91.8720521,4.27541502 92.530736,4.13333333 93.2493797,4.13333333 C94.0476782,4.13333333 94.742907,4.29386407 95.3352848,4.61420676 C95.9272249,4.93478904 96.4195965,5.36822204 96.8123996,5.91450575 C97.2047651,6.46078947 97.5008446,7.09141172 97.7006381,7.80517451 C97.9002127,8.51917691 98,9.27678616 98,10.0780023 C98,10.879458 97.9032763,11.6373068 97.7104855,12.35083 C97.5174758,13.065072 97.2246788,13.6877875 96.8323133,14.2194558 C96.439729,14.7516032 95.9471386,15.1701811 95.3551985,15.4761479 C94.7630395,15.7821147 94.0741569,15.9349783 93.2892071,15.9349783 C93.0362375,15.9349783 92.7532879,15.9057473 92.4407961,15.8477646 C92.1280854,15.7893026 91.818876,15.6946614 91.5127303,15.5633616 C91.2065845,15.432541 90.91707,15.2540404 90.6444056,15.0280994 C90.3715223,14.802398 90.1421865,14.5220682 89.9557418,14.1866308 L89.9156955,14.1866308 L89.9156955,20 L88.2190923,20 L88.2190923,4.39569327 L89.9156955,4.39569327 L89.9156955,4.39569327 Z" id="Fill-11"></path>
            </g>
        </g>
    </g>
</svg>