<?xml version="1.0" encoding="UTF-8" standalone="no"?>
<svg width="100px" height="100px" viewBox="0 0 100 100" version="1.1" xmlns="http://www.w3.org/2000/svg" xmlns:xlink="http://www.w3.org/1999/xlink" xmlns:sketch="http://www.bohemiancoding.com/sketch/ns">
    <!-- Generator: Sketch 3.4.2 (15855) - http://www.bohemiancoding.com/sketch -->
    <title>icon-analytics</title>
    <desc>Created with Sketch.</desc>
    <defs></defs>
    <g id="Page-1" stroke="none" stroke-width="1" fill="none" fill-rule="evenodd" sketch:type="MSPage">
        <g id="icon-analytics" sketch:type="MSArtboardGroup" fill="#27273B">
            <path d="M64.75,33.1257576 C59.3985294,27.6121212 50.6906863,27.6121212 45.3392157,33.1257576 C40.4583333,38.1545455 40.0313725,46.0575758 44.0529412,51.5924242 L41.6735294,54.0439394 C40.5446078,53.8090909 39.3269608,54.140404 38.4519608,55.0429293 L28.2264706,65.5782828 C26.8387255,67.0080808 26.8387255,69.3267677 28.2264706,70.7565657 C29.6142157,72.1863636 31.8647059,72.1863636 33.252451,70.7565657 L43.477451,60.2217172 C44.3529412,59.3207071 44.6745098,58.0651515 44.4465686,56.9030303 L46.8259804,54.4515152 C52.1980392,58.5954545 59.8686275,58.1550505 64.7495098,53.1262626 C70.1014706,47.6116162 70.1014706,38.6393939 64.75,33.1257576 L64.75,33.1257576 Z M48.1122549,50.2681818 C44.2897059,46.3292929 44.2897059,39.9217172 48.1122549,35.9833333 C51.9348039,32.0449495 58.1544118,32.0444444 61.977451,35.9833333 C65.8004902,39.9217172 65.7995098,46.329798 61.977451,50.2681818 C58.1544118,54.2065657 51.9352941,54.2065657 48.1122549,50.2681818 L48.1122549,50.2681818 Z" id="Shape" sketch:type="MSShapeGroup"></path>
            <path d="M28.4916667,27.5141414 L38.7254902,27.5141414 L38.7254902,25.4939394 L28.4916667,25.4939394 C26.5661765,25.4939394 25,27.1070707 25,29.0919192 L25,39.6358586 L26.9607843,39.6358586 L26.9607843,29.0919192 C26.9602941,28.2212121 27.647549,27.5141414 28.4916667,27.5141414 L28.4916667,27.5141414 Z" id="Shape" sketch:type="MSShapeGroup"></path>
            <path d="M72.8544118,60.6792929 L72.8544118,71.2232323 C72.8544118,72.0939394 72.1681373,72.8010101 71.3235294,72.8010101 L61.0897059,72.8010101 L61.0897059,74.8212121 L71.3235294,74.8212121 C73.2490196,74.8212121 74.8151961,73.2075758 74.8151961,71.2232323 L74.8151961,60.6792929 L72.8544118,60.6792929 L72.8544118,60.6792929 Z" id="Shape" sketch:type="MSShapeGroup"></path>
        </g>
    </g>
</svg>