<?xml version="1.0" encoding="UTF-8" standalone="no"?>
<svg width="64px" height="38px" viewBox="0 0 64 38" version="1.1" xmlns="http://www.w3.org/2000/svg" xmlns:xlink="http://www.w3.org/1999/xlink" xmlns:sketch="http://www.bohemiancoding.com/sketch/ns">
    <!-- Generator: Sketch 3.5 (25232) - http://www.bohemiancoding.com/sketch -->
    <title>icon-plane2</title>
    <desc>Created with Sketch.</desc>
    <defs></defs>
    <g id="Page-1" stroke="none" stroke-width="1" fill="none" fill-rule="evenodd" sketch:type="MSPage">
        <g id="icon-plane2" sketch:type="MSLayerGroup">
            <g id="Group" sketch:type="MSShapeGroup">
                <path d="M32.861,11.03 C32.861,11.03 30.319,9.86 28.272,8.918 C26.226,7.976 25.709,6.825 27.126,6.365 C28.543,5.901 31.81,5.626 34.385,5.754 C35.555,5.812 39.065,5.983 39.065,5.983 C41.641,6.11 41.816,6.941 39.454,7.828 L32.861,11.03" id="Shape" fill="#42ADE2"></path>
                <path d="M8.328,20.389 C8.328,20.389 5.767,21.405 5.479,22.54 C5.203,23.633 4.34,37.307 62.204,5.022 C65.64,3.105 63.884,1.04 59.174,0.508 C44.961,-1.095 48.453,-0.006 8.329,20.389" id="Shape" fill="#DAE3EA"></path>
                <path d="M21.06,13.818 C21.06,13.818 8.239,10.004 4.02,8.58 C1.361,7.684 0,10.639 0,10.639 C0,10.639 4.96,22.807 5.479,22.54 L20.956,14.692 C21.476,14.426 21.522,14.032 21.059,13.818" id="Shape" fill="#42ADE2"></path>
                <path d="M34.77,25.525 C34.77,25.525 24.365,26.404 17.225,33.605 C16.816,34.016 15.976,35.102 17.306,35.716 C19.847,36.428 25.716,36.996 35.675,32.232 L34.77,25.529" id="Shape" fill="#C5D0D8"></path>
                <path d="M35.911,32.06 C35.038,32.366 33.98,31.162 33.557,29.385 C33.133,27.607 33.493,25.912 34.367,25.607 C35.242,25.306 36.296,26.502 36.718,28.281 C37.146,30.061 36.787,31.758 35.911,32.06" id="Shape" fill="#94989B"></path>
                <path d="M33.26,15.225 C30.731,16.354 29.562,16.947 28.146,19.225 L17.763,34.841 C16.347,37.122 17.337,38.286 19.963,37.429 C22.59,36.571 26.162,34.184 27.904,32.127 L44.453,12.561 C46.195,10.504 45.551,9.741 43.021,10.87 L33.26,15.222" id="Shape" fill="#42ADE2"></path>
                <g transform="translate(20.000000, 0.000000)" fill="#3E4347">
                    <path d="M15.06,29.617 C14.755,28.335 14.122,27.366 13.466,27.032 C13.337,27.703 13.356,28.535 13.56,29.39 C13.865,30.671 14.499,31.644 15.158,31.978 C15.286,31.305 15.267,30.473 15.06,29.617" id="Shape"></path>
                    <path d="M34.4,0.733 C33.948,1.487 31.164,3.808 31.164,3.808 C31.164,3.808 31.706,4.665 33.216,4.236 C34.522,3.867 35.814,2.599 36.55,1.216 L34.4,0.737" id="Shape"></path>
                    <circle id="Oval" cx="1.287" cy="17.427" r="0.951"></circle>
                    <circle id="Oval" cx="4.912" cy="15.558" r="0.952"></circle>
                    <circle id="Oval" cx="8.537" cy="13.688" r="0.952"></circle>
                    <circle id="Oval" cx="12.16" cy="11.819" r="0.952"></circle>
                    <circle id="Oval" cx="15.787" cy="9.949" r="0.952"></circle>
                    <circle id="Oval" cx="19.41" cy="8.08" r="0.951"></circle>
                    <circle id="Oval" cx="23.04" cy="6.21" r="0.952"></circle>
                </g>
            </g>
        </g>
    </g>
</svg>