<?xml version="1.0" encoding="UTF-8" standalone="no"?>
<svg width="100px" height="100px" viewBox="0 0 100 100" version="1.1" xmlns="http://www.w3.org/2000/svg" xmlns:xlink="http://www.w3.org/1999/xlink" xmlns:sketch="http://www.bohemiancoding.com/sketch/ns">
    <!-- Generator: Sketch 3.4.2 (15855) - http://www.bohemiancoding.com/sketch -->
    <title>data-infrastructure</title>
    <desc>Created with Sketch.</desc>
    <defs></defs>
    <g id="Page-1" stroke="none" stroke-width="1" fill="none" fill-rule="evenodd" sketch:type="MSPage">
        <g id="data-infrastructure" sketch:type="MSArtboardGroup" fill="#27273B">
            <path d="M74.140159,25.0476821 L25.3807157,25.0476821 C23.5199912,25.0476821 22,26.5690949 22,28.4237307 L22,63.4583885 C22,65.3107064 23.5199912,66.8344371 25.3807157,66.8344371 L74.140159,66.8344371 C75.9984537,66.8344371 77.5184449,65.3107064 77.5184449,63.4583885 L77.5184449,28.4237307 C77.5184449,26.5690949 75.9984537,25.0476821 74.140159,25.0476821 L74.140159,25.0476821 Z M73.2895958,60.9751656 L26.2288491,60.9751656 L26.2288491,29.783223 L73.2895958,29.783223 L73.2895958,60.9751656 L73.2895958,60.9751656 Z" id="Shape" sketch:type="MSShapeGroup"></path>
            <path d="M43.5040866,68.4368653 L37.1238127,74.9152318 L62.4875193,74.9152318 L56.1072454,68.4368653 L43.5040866,68.4368653 Z" id="Shape" sketch:type="MSShapeGroup"></path>
            <path d="M33.4144025,54.7206402 C34.6604816,54.7206402 35.6753921,53.7087196 35.6753921,52.4635762 C35.6753921,52.2374172 35.6086812,52.0326711 35.5467197,51.8254967 C38.4366026,49.4970199 43.5423017,45.3923841 45.8698918,43.5995585 C46.2368014,43.8590508 46.6632428,44.0448124 47.1468964,44.0448124 C47.5494809,44.0448124 47.906892,43.911479 48.2332671,43.7281457 C49.7294014,44.9995585 52.2739121,47.1613687 54.0798542,48.6970199 C54.0559973,48.8279249 54.0036448,48.9445916 54.0036448,49.0826711 C54.0036448,50.3302428 55.0185553,51.3421634 56.2669538,51.3421634 C57.5153523,51.3421634 58.5302629,50.3302428 58.5302629,49.0826711 C58.5302629,48.8612583 58.463552,48.65883 58.4040203,48.4565121 L64.2506075,43.1804636 C64.5650541,43.344702 64.9033576,43.4613687 65.2846256,43.4613687 C66.5330241,43.4613687 67.5456152,42.4494481 67.5456152,41.2018764 C67.5456152,39.9543046 66.5330241,38.9423841 65.2846256,38.9423841 C64.0362271,38.9423841 63.0260658,39.9543046 63.0260658,41.2041943 C63.0260658,41.501766 63.0903468,41.7850993 63.1951624,42.0445916 C61.5607466,43.5183223 59.0402032,45.7944812 57.4677491,47.2134658 C57.1175171,46.9873068 56.7220013,46.8206402 56.2693837,46.8206402 C55.7356969,46.8206402 55.268721,47.0325607 54.8828142,47.3396247 C53.3889993,46.0706402 50.973161,44.0183223 49.2554672,42.55883 C49.3460349,42.3160044 49.4103159,42.0612583 49.4103159,41.7850993 C49.4103159,40.5375276 48.3977248,39.5256071 47.1493263,39.5256071 C45.9009278,39.5256071 44.8883366,40.5375276 44.8883366,41.7850993 C44.8883366,42.0612583 44.9550475,42.3184327 45.0456152,42.5612583 L34.6676607,50.6300221 C34.3055003,50.3824503 33.8885575,50.2014349 33.4168323,50.2014349 C32.1684338,50.2014349 31.1558427,51.2133554 31.1558427,52.4609272 C31.1534129,53.7087196 32.166004,54.7206402 33.4144025,54.7206402 L33.4144025,54.7206402 Z" id="Shape" sketch:type="MSShapeGroup"></path>
        </g>
    </g>
</svg>