<?xml version="1.0" encoding="UTF-8" standalone="no"?>
<svg width="100px" height="100px" viewBox="0 0 100 100" version="1.1" xmlns="http://www.w3.org/2000/svg" xmlns:xlink="http://www.w3.org/1999/xlink" xmlns:sketch="http://www.bohemiancoding.com/sketch/ns">
    <!-- Generator: Sketch 3.4.2 (15855) - http://www.bohemiancoding.com/sketch -->
    <title>icon-marketing</title>
    <desc>Created with Sketch.</desc>
    <defs></defs>
    <g id="Page-1" stroke="none" stroke-width="1" fill="none" fill-rule="evenodd" sketch:type="MSPage">
        <g id="icon-marketing" sketch:type="MSArtboardGroup" fill="#27273B">
            <path d="M50,25 C36.2149272,25 25,36.2149272 25,50 C25,63.7850728 36.2149272,75 50,75 C63.7850728,75 75,63.7850728 75,50 C75,36.2149272 63.7850728,25 50,25 L50,25 Z M50,71.1165049 C38.3563107,71.1165049 28.8834951,61.643568 28.8834951,50 C28.8834951,38.3563107 38.3563107,28.8834951 50,28.8834951 C61.6436893,28.8834951 71.1165049,38.3563107 71.1165049,50 C71.1165049,61.643568 61.6436893,71.1165049 50,71.1165049 L50,71.1165049 Z" id="Shape" sketch:type="MSShapeGroup"></path>
            <path d="M50,34.7087379 C41.5683252,34.7087379 34.7087379,41.5683252 34.7087379,50 C34.7087379,58.4316748 41.5683252,65.2912621 50,65.2912621 C52.8458738,65.2912621 55.5121359,64.5088592 57.7964806,63.1492718 L56.726335,62.0402913 C56.6104369,62.3105583 56.4429612,62.5526699 56.2292476,62.7587379 C55.8148058,63.1589806 55.2678398,63.3799757 54.6899272,63.3799757 C53.7855583,63.3773058 52.9834951,62.8389563 52.6407767,62.0086165 L52.296966,61.1753641 C51.5548544,61.3276699 50.7866505,61.407767 50,61.407767 C43.7097087,61.407767 38.592233,56.2902913 38.592233,50 C38.592233,43.7097087 43.7097087,38.592233 50,38.592233 C56.2902913,38.592233 61.407767,43.7097087 61.407767,50 C61.407767,50.8978155 61.3031553,51.7716019 61.106068,52.6101942 L61.9722087,53.0041262 C62.790534,53.3768204 63.2996359,54.1976942 63.2697816,55.0957524 C63.240534,55.9854369 62.6871359,56.765534 61.8581311,57.0882282 L62.9128641,58.181432 C64.4182039,55.8140777 65.2912621,53.0071602 65.2912621,50 C65.2912621,41.5683252 58.4316748,34.7087379 50,34.7087379 L50,34.7087379 Z" id="Shape" sketch:type="MSShapeGroup"></path>
            <path d="M50.1014563,47.8223301 C50.4192961,47.8223301 50.7273058,47.8889563 51.0168689,48.0201456 L54.596966,49.6489078 C54.417233,47.2661408 52.4286408,45.3883495 50,45.3883495 C47.453034,45.3883495 45.3883495,47.453034 45.3883495,50 C45.3883495,52.4055825 47.2305825,54.3800971 49.581068,54.5918689 L48.051699,50.8848301 C47.7023058,50.0381068 47.9025485,49.0798544 48.5620146,48.4438107 C48.9762136,48.0434466 49.5234223,47.8223301 50.1014563,47.8223301 L50.1014563,47.8223301 Z" id="Shape" sketch:type="MSShapeGroup"></path>
            <path d="M58.7911408,56.3633495 L61.356432,55.393568 C61.5059466,55.3365291 61.6070388,55.1955097 61.6123786,55.0354369 C61.6179612,54.8754854 61.5260922,54.7279126 61.3803398,54.6614078 L50.4275485,49.6783981 C50.2791262,49.611165 50.1050971,49.6411408 49.9877427,49.7542476 C49.8706311,49.867233 49.8343447,50.0401699 49.8964806,50.1907767 L54.4856796,61.314199 C54.5467233,61.4625 54.6907767,61.559466 54.8510922,61.5595874 C54.9563107,61.5598301 55.0550971,61.5184466 55.1276699,61.448301 C55.1657767,61.4115291 55.1968447,61.3671117 55.2180825,61.3162621 L56.2788835,58.7871359 L60.2196602,62.8707524 C60.3716019,63.0285194 60.6226942,63.0328883 60.7804612,62.8807039 L62.7216019,61.0075243 C62.8792476,60.8553398 62.8837379,60.6042476 62.731432,60.4467233 L58.7911408,56.3633495 L58.7911408,56.3633495 Z" id="Shape" sketch:type="MSShapeGroup"></path>
        </g>
    </g>
</svg>