<?xml version="1.0" encoding="UTF-8" standalone="no"?>
<svg width="100px" height="100px" viewBox="0 0 100 100" version="1.1" xmlns="http://www.w3.org/2000/svg" xmlns:xlink="http://www.w3.org/1999/xlink" xmlns:sketch="http://www.bohemiancoding.com/sketch/ns">
    <!-- Generator: Sketch 3.4.2 (15855) - http://www.bohemiancoding.com/sketch -->
    <title>icon-code</title>
    <desc>Created with Sketch.</desc>
    <defs></defs>
    <g id="Page-1" stroke="none" stroke-width="1" fill="none" fill-rule="evenodd" sketch:type="MSPage">
        <g id="icon-code" sketch:type="MSArtboardGroup" fill="#27273B">
            <g id="Shape-+-Shape-+-Shape" sketch:type="MSLayerGroup" transform="translate(11.000000, 22.000000)">
                <path d="M77.5338788,26.8633325 L58.3407469,7.64813421 C57.7439208,7.05062193 56.6879365,7.05062193 56.0911104,7.64813421 L51.9300387,11.8139898 C51.3085438,12.4361993 51.3085438,13.4448 51.9300387,14.0670095 L65.8376786,27.9890456 L51.9308345,41.9134718 C51.3093396,42.5356813 51.3093396,43.544282 51.9308345,44.1664914 L56.0919061,48.3323471 C56.3903192,48.6311032 56.7953652,48.8 57.2171223,48.8 C57.6380836,48.8 58.0439254,48.6311032 58.3423384,48.3323471 L77.5338788,29.1179455 C78.1553737,28.4949393 78.1553737,27.4855419 77.5338788,26.8633325 L77.5338788,26.8633325 Z" id="Shape" sketch:type="MSShapeGroup"></path>
                <path d="M26.0674067,41.9169707 L12.1630923,27.9996018 L26.0697938,14.0830293 C26.3681867,13.7843904 26.5360825,13.3798342 26.5360825,12.9569615 C26.5360825,12.5348852 26.3689824,12.1295327 26.0697938,11.8308938 L21.9090029,7.66667305 C21.61061,7.36803415 21.2055913,7.2 20.7838627,7.2 C20.362134,7.2 19.9571153,7.36803415 19.6587224,7.66667305 L0.466089743,26.8727377 C-0.155363248,27.494703 -0.155363248,28.5029079 0.466089743,29.1256695 L19.6579267,48.3325306 C19.9563196,48.6311695 20.3613383,48.8 20.783067,48.8 C21.2047956,48.8 21.6098143,48.6311695 21.9082072,48.3325306 L26.0689981,44.1683098 C26.6904511,43.5471409 26.6904511,42.538936 26.0674067,41.9169707 L26.0674067,41.9169707 Z" id="Shape" sketch:type="MSShapeGroup"></path>
                <path d="M49.4837719,-3.30402372e-13 L45.9421501,-3.30402372e-13 C44.1579654,-4.6161073e-09 44.3343926,-3.30402372e-13 43.8984561,1.20112146 C43.898455,1.20112146 28.213454,53.8923966 28.213454,53.8923966 C27.8504746,55.3102276 29.0179041,56 29.3758148,56 L33.256092,56 C33.9519038,56 34.5160736,55.6951549 34.7232853,54.9985256 L50.5898903,1.69638439 C50.9278741,0.495941109 49.9554842,-3.30402372e-13 49.4837719,-3.30402372e-13 Z" id="Shape" sketch:type="MSShapeGroup"></path>
            </g>
        </g>
    </g>
</svg>