<?xml version="1.0" encoding="UTF-8" standalone="no"?>
<svg width="100px" height="100px" viewBox="0 0 100 100" version="1.1" xmlns="http://www.w3.org/2000/svg" xmlns:xlink="http://www.w3.org/1999/xlink" xmlns:sketch="http://www.bohemiancoding.com/sketch/ns">
    <!-- Generator: Sketch 3.4.2 (15855) - http://www.bohemiancoding.com/sketch -->
    <title>icon-growth</title>
    <desc>Created with Sketch.</desc>
    <defs></defs>
    <g id="Page-1" stroke="none" stroke-width="1" fill="none" fill-rule="evenodd" sketch:type="MSPage">
        <g id="icon-growth" sketch:type="MSArtboardGroup" fill="#27273B">
            <path d="M48.995155,25.0015457 C35.5066249,25.0015457 24.5329457,36.0956257 24.5329457,49.7321491 C24.5329457,63.3686725 35.5066249,74.4627526 48.995155,74.4627526 C62.4836852,74.4627526 73.4573643,63.3686725 73.4573643,49.7321491 C73.4573643,36.0956257 62.4836852,25.0015457 48.995155,25.0015457 L48.995155,25.0015457 Z M48.995155,71.7149077 C37.005275,71.7149077 27.250969,61.8534079 27.250969,49.7321491 C27.250969,37.6108904 37.005275,27.7493905 48.995155,27.7493905 C60.9850351,27.7493905 70.7393411,37.6108904 70.7393411,49.7321491 C70.7393411,61.8534079 60.9850351,71.7149077 48.995155,71.7149077 L48.995155,71.7149077 Z" id="Shape" sketch:type="MSShapeGroup"></path>
            <path d="M63.9374879,38.6049232 C63.9356192,38.5853448 63.931882,38.5662817 63.9291639,38.5470467 C63.9255965,38.5219727 63.9227086,38.4968986 63.9177822,38.4719962 C63.9133654,38.4493265 63.9072499,38.4273437 63.901644,38.4051893 C63.8963778,38.3838935 63.8917911,38.3625977 63.8855057,38.3416453 C63.8788805,38.3198343 63.8707264,38.2987103 63.8632519,38.2772427 C63.8559472,38.2564621 63.8491521,38.2353381 63.8406583,38.214901 C63.8323344,38.1946356 63.8226514,38.1754007 63.8134781,38.1556506 C63.8037951,38.1346983 63.7946218,38.1135742 63.7837497,38.0931371 C63.7735571,38.0739022 63.7620055,38.0556977 63.7509635,38.036978 C63.7392421,38.0172279 63.7282001,37.997306 63.7154594,37.9780711 C63.7015295,37.9571188 63.6860707,37.9373687 63.6711216,37.9171033 C63.6594001,37.9014749 63.6486979,37.8853314 63.6362969,37.8700465 C63.5793883,37.7999764 63.5158545,37.7355738 63.4463751,37.6780408 C63.4312561,37.6655038 63.4152877,37.6546841 63.3998289,37.6428341 C63.3799534,37.6277209 63.3602477,37.6120925 63.3395228,37.5980098 C63.3204966,37.5851293 63.3007909,37.5739662 63.281425,37.5622879 C63.2629085,37.5511247 63.2447317,37.5392746 63.2257055,37.5289702 C63.2054902,37.5181506 63.1845954,37.5087049 63.1640404,37.4989157 C63.1445046,37.4896417 63.1253086,37.4796808 63.1052631,37.4712655 C63.084878,37.4628502 63.064153,37.4559806 63.043598,37.448424 C63.0223634,37.4406957 63.0014686,37.4324522 62.9798943,37.4259261 C62.9591694,37.4195717 62.9379348,37.4149347 62.9168702,37.4096107 C62.8949561,37.404115 62.8732119,37.3977606 62.8507882,37.3932954 C62.826326,37.3883149 62.801524,37.3853953 62.776892,37.3819605 C62.7576959,37.3792127 62.7388396,37.3754344 62.7194737,37.3735453 C62.6746263,37.36908 62.6297789,37.3666756 62.5847617,37.3666756 L54.4312016,37.3666756 C53.6806874,37.3666756 53.0721899,37.9818494 53.0721899,38.7405981 C53.0721899,39.4993467 53.6806874,40.1145205 54.4312016,40.1145205 L59.3044474,40.1145205 L48.995155,50.5369242 L45.8791113,47.3865201 C45.3484172,46.8500034 44.487993,46.8500034 43.9572989,47.3865201 L33.0852059,58.3778994 C32.554342,58.9145878 32.554342,59.7844525 33.0852059,60.3209692 C33.3505529,60.5892275 33.69829,60.7233567 34.046197,60.7233567 C34.394104,60.7233567 34.7418411,60.5892275 35.0071881,60.3209692 L44.9181202,50.3011247 L48.0341639,53.4515288 C48.2332591,53.6526367 48.4785607,53.7783506 48.7355838,53.8286705 C48.8212016,53.8455011 48.9081783,53.8537446 48.995155,53.8537446 C49.0821318,53.8537446 49.1691085,53.8453293 49.2547263,53.8286705 C49.5117493,53.7783506 49.7570509,53.6526367 49.9561461,53.4515288 C49.956316,53.4513571 49.9564859,53.4511853 49.9564859,53.4510136 L61.2262597,42.0575902 L61.2262597,46.9843043 C61.2262597,47.7430529 61.8347571,48.3582267 62.5852713,48.3582267 C63.3357855,48.3582267 63.9442829,47.7430529 63.9442829,46.9843043 L63.9442829,38.7411133 C63.9442829,38.6957738 63.9419047,38.6502627 63.9374879,38.6049232 L63.9374879,38.6049232 Z" id="Shape" sketch:type="MSShapeGroup"></path>
        </g>
    </g>
</svg>