<?xml version="1.0" encoding="UTF-8" standalone="no"?>
<svg width="100px" height="100px" viewBox="0 0 100 100" version="1.1" xmlns="http://www.w3.org/2000/svg" xmlns:xlink="http://www.w3.org/1999/xlink" xmlns:sketch="http://www.bohemiancoding.com/sketch/ns">
    <!-- Generator: Sketch 3.4.2 (15855) - http://www.bohemiancoding.com/sketch -->
    <title>icon-social</title>
    <desc>Created with Sketch.</desc>
    <defs></defs>
    <g id="Page-1" stroke="none" stroke-width="1" fill="none" fill-rule="evenodd" sketch:type="MSPage">
        <g id="icon-social" sketch:type="MSArtboardGroup" fill="#27273B">
            <path d="M58.6235106,60.264135 L43.021383,52.3525316 C43.2256383,51.5971519 43.3724468,50.8166667 43.3724468,49.9952532 C43.3724468,49.1010549 43.1980851,48.2591772 42.9547872,47.4399789 L58.4880851,39.5648734 C60.1609574,41.7720464 62.802234,43.2146624 65.8014894,43.2146624 C70.8821277,43.2146624 74.9920213,39.1394515 74.9920213,34.1062236 C74.9921277,29.0775316 70.8821277,25 65.8015957,25 C60.7324468,25 56.6179787,29.0775316 56.6179787,34.1061181 C56.6179787,34.9298523 56.7648936,35.7125527 56.971383,36.4702532 L41.3714894,44.3818565 C39.6871277,42.268038 37.107766,40.8845992 34.1842553,40.8845992 C29.1081915,40.8845992 25.0006383,44.964346 25.0006383,49.9952532 C25.0006383,55.0261603 29.1082979,59.103692 34.1842553,59.103692 C37.1880851,59.103692 39.8271277,57.6565401 41.5068085,55.4471519 L57.0331915,63.3222574 C56.7898936,64.139135 56.6132979,64.9878692 56.6132979,65.8843882 C56.6132979,70.9152954 60.727766,74.992827 65.7969149,74.992827 C70.8775532,74.992827 74.9874468,70.9152954 74.9874468,65.8843882 C74.9897872,60.8489451 70.8798936,56.7736287 65.7992553,56.7736287 C62.8803191,56.7736287 60.3056383,58.1525316 58.6235106,60.264135 Z" id="Shape" sketch:type="MSShapeGroup"></path>
        </g>
    </g>
</svg>