<?xml version="1.0" encoding="UTF-8" standalone="no"?>
<svg width="75px" height="42px" viewBox="0 0 75 42" version="1.1" xmlns="http://www.w3.org/2000/svg" xmlns:xlink="http://www.w3.org/1999/xlink" xmlns:sketch="http://www.bohemiancoding.com/sketch/ns">
    <!-- Generator: Sketch 3.5 (25232) - http://www.bohemiancoding.com/sketch -->
    <title>icon-plane</title>
    <desc>Created with Sketch.</desc>
    <defs></defs>
    <g id="Page-1" stroke="none" stroke-width="1" fill="none" fill-rule="evenodd" sketch:type="MSPage">
        <g id="Artboard-1" sketch:type="MSArtboardGroup" transform="translate(-406.000000, -372.000000)">
            <g id="icon-plane" sketch:type="MSLayerGroup" transform="translate(442.500000, 386.000000) scale(-1, 1) rotate(-330.000000) translate(-442.500000, -386.000000) translate(410.000000, 357.000000)">
                <path d="M9.938,32.83 C9.938,32.83 4.452,33.402 1.956,37.09 C0.669,38.992 2.036,40.893 3.563,40.893 C6.515,40.893 9.655,38.733 11.223,33.186 L9.938,32.83" id="Shape" fill="#C5D0D8" sketch:type="MSShapeGroup"></path>
                <ellipse id="Oval" fill="#DAE3EA" sketch:type="MSShapeGroup" transform="translate(3.505413, 38.613514) rotate(-25.094083) translate(-3.505413, -38.613514) " cx="3.5054125" cy="38.6135141" rx="2.12997036" ry="2.33596749"></ellipse>
                <ellipse id="Oval" fill="#3E4347" sketch:type="MSShapeGroup" transform="translate(3.311598, 38.735356) rotate(-25.094083) translate(-3.311598, -38.735356) " cx="3.3115977" cy="38.7353562" rx="1.5879779" ry="1.78497516"></ellipse>
                <path d="M8.529,39.748 C11.003,35.918 12.259,34.264 15.655,32.217 C16.618,31.637 17.75,31.039 19,30.434 C13.446,29.998 8.728,29.745 5.96,29.748 C4.183,29.756 0.048,31.773 1.193,33.365 C2.135,34.668 5.436,37.361 8.525,39.748" id="Shape" fill="#42ADE2" sketch:type="MSShapeGroup"></path>
                <path d="M54.3,19.538 C44.24,20.972 26.28,25.02 17.388,29.823 C12.07,32.694 11.763,34.725 4.726,43.995 C-2.745,53.837 6.154,60.319 19.336,56.28 C32.545,52.23 49.366,36.27 57.223,25.21 C59.054,22.633 57.494,19.087 54.3,19.542" id="Shape" fill="#DAE3EA" sketch:type="MSShapeGroup"></path>
                <path d="M31,44.748 C26.091,48.273 15.833,52.846 15.833,52.846 L19.333,56.28 C32.542,52.23 49.363,36.27 57.22,25.21 C58.129,23.931 58.202,22.412 57.655,21.263 C57.516,24.19 54.781,27.674 31,44.752" id="Shape" fill="#C5D0D8" sketch:type="MSShapeGroup"></path>
                <path d="M63.781,21.926 C64.421,21.327 56.974,20.318 56.974,20.318 C56.974,20.318 50.095,23.279 51.281,24.42 C59.139,23.985 62.81,22.836 63.781,21.926" id="Shape" fill="#42ADE2" sketch:type="MSShapeGroup"></path>
                <g id="Group" transform="translate(8.000000, 25.000000)" fill="#3E4347" sketch:type="MSShapeGroup">
                    <path d="M38.39,1.97 C37.899,2.196 37.496,2.793 37.496,3.299 L37.496,4.554 C37.496,5.058 37.878,5.254 38.344,4.984 L40.649,3.664 C41.115,3.394 41.497,2.763 41.497,2.258 L41.497,1.456 C41.497,0.952 41.095,0.724 40.603,0.95 L38.39,1.97" id="Shape"></path>
                    <path d="M25.394,7.955 C24.903,8.18 24.5,8.779 24.5,9.285 L24.5,12.008 C24.5,12.514 24.882,12.707 25.348,12.442 L28.653,10.546 C29.119,10.278 29.501,9.648 29.501,9.142 L29.501,6.984 C29.501,6.478 29.099,6.252 28.607,6.476 L25.394,7.955" id="Shape"></path>
                    <path d="M32.39,4.73 C31.899,4.957 31.496,5.554 31.496,6.06 L31.496,7.994 C31.496,8.498 31.878,8.693 32.344,8.426 L34.649,7.104 C35.115,6.838 35.497,6.206 35.497,5.702 L35.497,4.219 C35.497,3.715 35.095,3.487 34.603,3.712 L32.39,4.73" id="Shape"></path>
                    <path d="M15.65,11.555 C8.559,11.369 5.331,10.881 3.57,9.67 C2.624,10.865 1.49,12.473 0.101,14.416 C0.705,15.172 4.688,19.4 14.789,16.664 C16.295,16.256 17.111,15.103 17.719,13.738 C18.324,12.373 18.087,11.617 15.65,11.555" id="Shape"></path>
                </g>
                <path d="M16.02,34.498 C16.02,34.498 12.827,36.527 10,43.766 C10,43.766 12.586,45.043 12.819,44.221 C14.686,37.664 18,34.889 18,34.889 L16.023,34.498" id="Shape" fill="#E6E6E6" sketch:type="MSShapeGroup"></path>
                <path d="M20.17,56.01 C15.035,57.865 6.838,59.01 3.317,54.742 C1.526,52.57 1.004,48.431 4.803,43.895 C6.838,42.934 17.463,45.992 20.17,56.005" id="Shape" fill="#3E4347" sketch:type="MSShapeGroup"></path>
                <path d="M54.01,37.66 C54.01,37.66 45.94,40.205 42.231,46.236 C41.043,48.17 47.294,52.449 47.294,52.449 C49.949,51.154 53.746,47.06 56.527,39.654 L54.01,37.66" id="Shape" fill="#C5D0D8" sketch:type="MSShapeGroup"></path>
                <path d="M65,39.24 C65,37.783 58.001,35.658 44.498,34.75 C41.5,34.791 37,37.75 31,44.75 C41.703,44.75 56.13,44.346 60.953,42.643 C63.997,41.566 65,40.473 65,39.24" id="Shape" fill="#42ADE2" sketch:type="MSShapeGroup"></path>
                <path d="M56.28,17.958 C56.28,16.961 55.654,16.154 54.883,16.154 C54.837,16.154 54.792,16.166 54.746,16.172 L54.744,16.154 L47.793,17.337 L48.846,22.586 L55.58,19.576 C56.008,19.23 56.28,18.815 56.28,17.955" id="Shape" fill="#ACB8BF" sketch:type="MSShapeGroup"></path>
                <path d="M49.17,17.715 C49.17,17.715 52.912,5.09 55.622,1.743 C56.02,1.25 57.723,0.326 57.723,0.326 L55.184,16.198 L49.174,17.715" id="Shape" fill="#42ADE2" sketch:type="MSShapeGroup"></path>
                <ellipse id="Oval" fill="#DAE3EA" sketch:type="MSShapeGroup" transform="translate(45.493579, 48.725490) rotate(-23.085739) translate(-45.493579, -48.725490) " cx="45.4935794" cy="48.7254898" rx="4.00991663" ry="4.13591401"></ellipse>
                <ellipse id="Oval" fill="#3E4347" sketch:type="MSShapeGroup" transform="translate(45.305297, 48.882572) rotate(-23.080467) translate(-45.305297, -48.882572) " cx="45.305297" cy="48.8825716" rx="2.98682079" ry="3.15981041"></ellipse>
                <path d="M56.929,0.326 C56.929,0.326 55.243,1.264 54.828,1.743 C51.963,5.048 47.197,17.485 47.197,17.485 L49.173,17.714 C49.173,17.714 52.915,5.089 55.625,1.742 C56.023,1.249 57.726,0.325 57.726,0.325 L56.929,0.325 L56.929,0.326 Z" id="Shape" fill="#DAE3EA" sketch:type="MSShapeGroup"></path>
                <ellipse id="Oval" fill="#C5D0D8" sketch:type="MSShapeGroup" transform="translate(48.182579, 19.984472) rotate(-16.911070) translate(-48.182579, -19.984472) " cx="48.1825787" cy="19.9844724" rx="2.25710049" ry="2.68811968"></ellipse>
                <ellipse id="Oval" fill="#3E4347" sketch:type="MSShapeGroup" transform="translate(48.128980, 19.997313) rotate(-16.918218) translate(-48.128980, -19.997313) " cx="48.12898" cy="19.9973133" rx="1.60396462" ry="1.94595708"></ellipse>
            </g>
        </g>
    </g>
</svg>