<?xml version="1.0" encoding="UTF-8" standalone="no"?>
<svg width="502px" height="252px" viewBox="0 0 502 252" version="1.1" xmlns="http://www.w3.org/2000/svg" xmlns:xlink="http://www.w3.org/1999/xlink">
    <!-- Generator: Sketch 3.8.3 (29802) - http://www.bohemiancoding.com/sketch -->
    <title>ORIGINAL LOCKUP</title>
    <desc>Created with Sketch.</desc>
    <defs></defs>
    <g id="Website" stroke="none" stroke-width="1" fill="none" fill-rule="evenodd">
        <g id="ORIGINAL-LOCKUP" fill="#000E30">
            <g id="Group" transform="translate(0.000000, 199.000000)">
                <polygon id="Fill-2" points="0.59 1.3495 10.151 1.3495 25.324 22.4115 41.052 1.3495 50.128 1.3495 50.128 51.9275 40.498 51.9275 40.498 16.8695 25.255 37.4465 10.221 17.0765 10.221 51.9275 0.59 51.9275"></polygon>
                <path d="M90.3199,1.3495 L106.1859,1.3495 C117.8259,1.3495 124.8239,8.7625 124.8239,18.3245 C124.8239,24.6285 121.7749,30.7955 115.0539,33.3585 L126.5559,51.9275 L115.5399,51.9275 L100.3659,26.9155 L105.0769,26.9155 C112.5599,26.9155 115.1239,21.9265 115.1239,18.3245 C115.1239,13.2665 112.3519,10.3565 105.0769,10.3565 L99.9509,10.3565 L99.9509,51.9275 L90.3199,51.9275 L90.3199,1.3495 Z" id="Fill-4"></path>
                <polygon id="Fill-6" points="165.963 40.786 177.204 40.786 177.204 52.027 165.963 52.027"></polygon>
                <polygon id="Fill-7" points="211.7834 1.3495 221.8294 1.3495 231.2524 36.3375 241.6454 1.3495 251.1374 1.3495 261.5294 36.1995 270.8134 1.3495 280.5834 1.3495 266.3104 51.9275 256.8184 51.9275 246.3564 16.5915 235.9634 51.9275 226.1254 51.9275"></polygon>
                <path d="M356.6643,26.6382 C356.6643,17.5622 349.3893,10.1482 340.3133,10.1482 C331.2373,10.1482 324.0313,17.5622 324.0313,26.6382 C324.0313,35.7142 331.2373,43.1282 340.3133,43.1282 C349.3893,43.1282 356.6643,35.7142 356.6643,26.6382 M314.4703,26.6382 C314.4703,12.2962 325.9713,0.6572 340.3133,0.6572 C354.7243,0.6572 366.2253,12.2962 366.2253,26.6382 C366.2253,41.0492 354.7243,52.6202 340.3133,52.6202 C325.9713,52.6202 314.4703,41.0492 314.4703,26.6382" id="Fill-8"></path>
                <polygon id="Fill-9" points="405.0306 1.3495 414.6616 1.3495 414.6616 42.7125 432.9526 42.7125 432.9526 51.9275 405.0306 51.9275"></polygon>
                <polygon id="Fill-10" points="472.7956 1.3495 501.4096 1.3495 501.4096 10.5645 482.4266 10.5645 482.4266 21.9265 501.4096 21.9265 501.4096 31.1415 482.4266 31.1415 482.4266 51.9275 472.7956 51.9275"></polygon>
            </g>
            <g id="Group-2" transform="translate(81.000000, 0.000000)">
                <polygon id="Fill-11" points="0.3844 124.2852 61.2844 124.2852 99.2644 62.1582 66.8264 15.5192"></polygon>
                <polygon id="Fill-12" points="339.6157 0.38 278.7157 0.38 240.7357 62.507 273.1737 109.146"></polygon>
                <polygon id="Fill-13" points="252.3553 28.1333 191.4553 28.1333 170.0833 62.5073 202.5213 109.1463"></polygon>
                <polygon id="Fill-14" points="80.2187 109.1464 141.1187 109.1464 162.4907 74.7724 130.0527 28.1334"></polygon>
            </g>
        </g>
    </g>
</svg>